<svg width="95" height="28" viewBox="0 0 95 28" fill="none" xmlns="http://www.w3.org/2000/svg">
<path d="M15.1497 15.6813C15.164 17.1837 14.7646 18.5197 13.6568 19.5989C13.3478 19.8985 13.4476 20.3549 13.3668 20.7352C13.0958 22.0094 12.782 23.274 12.1021 24.4008C10.4144 27.1821 6.57758 27.6481 4.40008 25.3565C3.93416 24.8668 3.62512 24.2915 3.45872 23.6401C3.40642 23.4262 3.39691 23.2122 3.65365 23.1172C3.91039 23.0173 4.04351 23.1742 4.12433 23.3881C4.73764 24.9856 6.0023 25.6893 7.61403 25.732C9.20674 25.7701 10.4048 24.9951 11.1703 23.5926C11.6077 22.7939 11.7789 21.9 11.9928 21.03C12.0689 20.721 11.9928 20.6164 11.6172 20.7019C8.87394 21.358 6.38265 19.8557 5.69803 17.1694C5.22734 15.3295 6.06411 13.2043 7.68535 12.1061C7.89929 11.9634 8.11799 11.8208 8.33194 11.6782C9.0546 11.8731 9.79628 11.7305 10.5237 11.7875C9.50151 12.0633 8.56966 12.4864 7.83273 13.2804C6.58709 14.6211 6.37314 16.5847 7.34303 18.0157C8.31768 19.4563 10.2765 20.0078 11.9738 19.3422C12.2781 19.2233 12.3922 19.0522 12.4254 18.7336C12.5871 17.1457 12.763 15.5625 12.9579 13.9793C13.0102 13.5371 13.053 13.0759 13.2717 12.6718C13.5665 12.1203 14.1037 12.087 14.4698 12.5958C14.6838 12.8953 14.7741 13.2519 14.893 13.5942C14.9785 14.274 15.0641 14.9777 15.1497 15.6813ZM13.7567 17.7305C14.4698 16.7748 14.6125 14.469 14.0086 13.7273C13.9231 15.068 13.8422 16.3612 13.7567 17.7305Z" fill="#109447"/>
<path d="M15.1497 15.6813C15.0641 14.9777 14.9785 14.274 14.8929 13.5751C15.0165 13.7653 15.1402 13.9555 15.259 14.1456C15.8818 15.1013 16.5902 15.9808 17.6362 16.5086C19.034 17.217 20.5601 16.9127 21.4967 15.7479C22.4619 14.5498 22.4286 13.0807 21.4254 11.8303C20.8121 11.0696 20.0134 10.5513 19.1671 10.0902C18.5585 9.76212 18.549 9.52916 19.1291 9.14881C19.9848 8.58779 20.717 7.90317 21.2067 6.99508C21.7963 5.91109 22.053 4.77955 21.568 3.59096C20.8311 1.78906 18.3541 1.15673 16.5807 2.31204C15.278 3.16307 14.6314 4.44675 14.3604 5.93962C14.1512 6.94754 14.2368 7.95546 14.3462 8.96814C14.3176 9.20586 14.1798 9.30095 13.9516 9.27242C13.7376 9.24865 13.6948 9.087 13.6473 8.90634C13.3763 7.88415 13.3145 6.85245 13.4048 5.80174C13.5284 5.25974 13.6473 4.71299 13.7709 4.17099C14.2368 3.15356 14.7931 2.20269 15.7107 1.50855C17.7646 -0.0508787 20.8644 0.334224 22.2717 2.34056C23.3177 3.83343 23.1798 6.11077 21.9484 7.81759C21.4539 8.50222 20.8359 9.05372 20.137 9.52916C20.2749 9.72884 20.4888 9.77638 20.66 9.87623C21.9104 10.5894 22.9135 11.526 23.2701 12.9761C23.6742 14.6353 23.0229 16.2994 21.6251 17.2835C20.2368 18.2677 18.4397 18.3057 16.9563 17.3929C16.2384 16.9412 15.6869 16.3231 15.1497 15.6813Z" fill="#EA252B"/>
<path d="M13.7758 4.16159C13.6522 4.70359 13.5333 5.25034 13.4097 5.79234C13.2528 5.46429 13.1244 5.11722 12.9342 4.81294C11.9453 3.25826 10.5761 2.28362 8.67909 2.40723C7.0008 2.51658 5.84074 3.48172 5.27497 5.05541C4.69494 6.66714 5.04201 8.14575 6.21633 9.38664C7.36213 10.6038 8.86927 10.9508 10.4715 11.0269C10.7805 11.0412 11.2892 10.8272 11.3225 11.3407C11.3558 11.8541 10.8281 11.6782 10.5238 11.7591C9.79161 11.7068 9.05469 11.8446 8.33202 11.6497C7.06736 11.3074 5.9073 10.7844 5.06578 9.72895C3.81538 8.16476 3.49208 6.41041 4.17671 4.53719C4.85659 2.67348 6.2306 1.51341 8.20366 1.25192C10.4525 0.952399 12.1783 1.9318 13.481 3.72895C13.5761 3.88109 13.6759 4.02372 13.7758 4.16159Z" fill="black"/>
<path d="M36.5455 1.59611V2.03927C36.5455 2.37947 36.4627 2.54957 36.2971 2.54957C36.2389 2.54957 36.1538 2.52047 36.0419 2.46228C35.5361 2.19818 35.169 2.03031 34.9407 1.95869C34.7169 1.88707 34.4349 1.85126 34.0947 1.85126C33.0069 1.85126 32.1341 2.2698 31.476 3.10687C30.9657 3.75147 30.7106 4.49454 30.7106 5.33609C30.7106 6.38355 31.0821 7.23854 31.8252 7.90103C32.4698 8.47401 33.2151 8.76049 34.0611 8.76049C34.4371 8.76049 34.7751 8.71125 35.075 8.61277C35.3749 8.50982 35.7107 8.333 36.0822 8.08233C36.1717 8.02413 36.2433 7.99504 36.2971 7.99504C36.4627 7.99504 36.5455 8.16738 36.5455 8.51205V9.00221C36.5455 9.22603 36.5142 9.36704 36.4515 9.42523C36.362 9.50133 36.1516 9.60428 35.8203 9.7341C35.2653 9.95344 34.6766 10.0631 34.0544 10.0631C33.2308 10.0631 32.4675 9.87062 31.7648 9.48566C30.9187 9.02012 30.2719 8.35091 29.8243 7.47802C29.4841 6.80657 29.314 6.09707 29.314 5.34952C29.314 4.56616 29.4997 3.82085 29.8713 3.11359C30.3055 2.28994 30.9165 1.64982 31.7043 1.19324C32.4474 0.763509 33.2666 0.548645 34.1618 0.548645C34.9676 0.548645 35.6771 0.723222 36.2903 1.07238C36.4157 1.144 36.4895 1.20443 36.5119 1.25367C36.5343 1.29843 36.5455 1.41258 36.5455 1.59611Z" fill="black"/>
<path d="M39.3656 4.60421V9.38494C39.3656 9.5998 39.3365 9.73857 39.2783 9.80124C39.2201 9.85943 39.0813 9.88853 38.862 9.88853H38.533C38.3136 9.88853 38.1749 9.85943 38.1167 9.80124C38.0585 9.73857 38.0294 9.5998 38.0294 9.38494V4.60421C38.0294 4.38934 38.0585 4.25058 38.1167 4.18791C38.1749 4.12972 38.3136 4.10062 38.533 4.10062H38.862C39.0813 4.10062 39.2201 4.12972 39.2783 4.18791C39.3365 4.25058 39.3656 4.38934 39.3656 4.60421ZM38.6941 0.844083C38.9359 0.844083 39.1418 0.929134 39.3119 1.09923C39.482 1.26486 39.567 1.46853 39.567 1.71026C39.567 1.95198 39.482 2.15789 39.3119 2.32799C39.1418 2.49809 38.9381 2.58314 38.7009 2.58314C38.4591 2.58314 38.2532 2.49809 38.0831 2.32799C37.913 2.15341 37.828 1.94526 37.828 1.70354C37.828 1.47077 37.913 1.26934 38.0831 1.09923C38.2532 0.929134 38.4569 0.844083 38.6941 0.844083Z" fill="black"/>
<path d="M42.4005 4.63778C42.6602 4.37815 42.9064 4.1991 43.1391 4.10062C43.3719 3.99766 43.6539 3.94619 43.9852 3.94619C44.3478 3.94619 44.679 4.01781 44.9789 4.16105C45.2833 4.29982 45.5183 4.49006 45.6839 4.73179C45.9257 5.08542 46.0465 5.62258 46.0465 6.34327V9.38494C46.0465 9.60428 46.0174 9.74305 45.9592 9.80124C45.901 9.85943 45.7623 9.88853 45.5429 9.88853H45.2139C44.9946 9.88853 44.8558 9.85943 44.7976 9.80124C44.7394 9.74305 44.7103 9.60428 44.7103 9.38494V6.65213C44.7103 6.11945 44.6521 5.75687 44.5358 5.56438C44.3657 5.28685 44.0657 5.14808 43.636 5.14808C43.1839 5.14808 42.8638 5.29357 42.6758 5.58453C42.4923 5.87549 42.4005 6.37908 42.4005 7.09529V9.38494C42.4005 9.60428 42.3715 9.74305 42.3133 9.80124C42.2551 9.85943 42.1163 9.88853 41.897 9.88853H41.5679C41.362 9.88853 41.2255 9.86615 41.1584 9.82138C41.0957 9.77214 41.0644 9.67143 41.0644 9.51923V9.38494V4.60421C41.0644 4.38934 41.0935 4.25058 41.1516 4.18791C41.2143 4.12972 41.3531 4.10062 41.5679 4.10062H41.897C42.1163 4.10062 42.2551 4.12972 42.3133 4.18791C42.3715 4.25058 42.4005 4.38934 42.4005 4.60421V4.63778Z" fill="black"/>
<path d="M49.1151 5.34952V9.38494C49.1151 9.60428 49.0837 9.74305 49.0211 9.80124C48.9629 9.85943 48.8263 9.88853 48.6115 9.88853H48.2825C48.0631 9.88853 47.9244 9.85943 47.8662 9.80124C47.808 9.74305 47.7789 9.60428 47.7789 9.38494V5.34952H47.7117C47.4924 5.34952 47.3536 5.32042 47.2954 5.26223C47.2372 5.19956 47.2081 5.0608 47.2081 4.84593V4.60421C47.2081 4.38934 47.2372 4.25058 47.2954 4.18791C47.3536 4.12972 47.4924 4.10062 47.7117 4.10062H47.7789V2.48914C47.7789 2.2698 47.808 2.13103 47.8662 2.07284C47.9244 2.01465 48.0631 1.98555 48.2825 1.98555H48.6115C48.8263 1.98555 48.9629 2.01465 49.0211 2.07284C49.0837 2.13103 49.1151 2.2698 49.1151 2.48914V4.10062H49.6455C49.8604 4.10062 49.9991 4.12972 50.0618 4.18791C50.12 4.25058 50.1491 4.38934 50.1491 4.60421V4.84593C50.1491 5.0608 50.12 5.19956 50.0618 5.26223C49.9991 5.32042 49.8604 5.34952 49.6455 5.34952H49.1151Z" fill="black"/>
<path d="M55.3596 9.28422C55.0507 9.57071 54.7642 9.77214 54.5001 9.88853C54.2405 10.0049 53.9338 10.0631 53.5802 10.0631C52.7387 10.0631 52.0493 9.73857 51.5121 9.0895C51.0511 8.53443 50.8205 7.83165 50.8205 6.98115C50.8205 6.04111 51.1093 5.28685 51.6867 4.71836C52.2149 4.20358 52.8349 3.94619 53.5466 3.94619C53.9137 3.94619 54.2338 4.01109 54.5068 4.14091C54.7843 4.26625 55.0686 4.47887 55.3596 4.77879V4.60421C55.3596 4.38934 55.3886 4.25058 55.4468 4.18791C55.505 4.12972 55.6438 4.10062 55.8631 4.10062H56.1922C56.4115 4.10062 56.5503 4.12972 56.6084 4.18791C56.6666 4.25058 56.6957 4.38934 56.6957 4.60421V9.38494C56.6957 9.60428 56.6666 9.74305 56.6084 9.80124C56.5503 9.85943 56.4115 9.88853 56.1922 9.88853H55.8631C55.6438 9.88853 55.505 9.85943 55.4468 9.80124C55.3886 9.74305 55.3596 9.60428 55.3596 9.38494V9.28422ZM53.7816 5.14808C53.2982 5.14808 52.9088 5.33609 52.6133 5.7121C52.3268 6.07021 52.1836 6.51337 52.1836 7.04158C52.1836 7.60559 52.3649 8.07113 52.7275 8.43819C53.0095 8.7202 53.3653 8.86121 53.7951 8.86121C54.3233 8.86121 54.7441 8.66201 55.0574 8.26362C55.3125 7.93684 55.4401 7.51831 55.4401 7.008C55.4401 6.41713 55.27 5.95159 54.9298 5.61139C54.6254 5.30252 54.2427 5.14808 53.7816 5.14808Z" fill="black"/>
<path d="M69.084 6.41713H67.2979C67.0831 6.41713 66.9443 6.38803 66.8817 6.32984C66.8235 6.26717 66.7944 6.1284 66.7944 5.91354V5.6181C66.7944 5.40324 66.8235 5.26447 66.8817 5.2018C66.9443 5.14361 67.0831 5.11451 67.2979 5.11451H70.0778C70.2881 5.11451 70.4247 5.13913 70.4873 5.18837C70.5545 5.23313 70.5881 5.32714 70.5881 5.47038C70.5881 6.41489 70.4314 7.18482 70.118 7.78017C69.7823 8.42029 69.3168 8.93954 68.7214 9.33794C67.9918 9.82138 67.1816 10.0631 66.2908 10.0631C65.5164 10.0631 64.7867 9.87734 64.1018 9.5058C63.229 9.02683 62.5687 8.34195 62.1211 7.45116C61.7898 6.78866 61.6242 6.07916 61.6242 5.32266C61.6242 4.37815 61.8726 3.51646 62.3695 2.73758C62.8306 2.02136 63.4461 1.46629 64.216 1.07238C64.9053 0.723222 65.6395 0.548645 66.4184 0.548645C67.7568 0.548645 68.9251 1.07461 69.9233 2.12655C70.0129 2.22056 70.0576 2.30785 70.0576 2.38842C70.0576 2.47795 69.9793 2.59881 69.8226 2.751L69.5742 2.98601C69.422 3.13373 69.3034 3.20759 69.2183 3.20759C69.1198 3.20759 69.0258 3.1494 68.9363 3.03301C68.6632 2.67938 68.2984 2.39514 67.8418 2.18027C67.3852 1.96093 66.9175 1.85126 66.4385 1.85126C65.4537 1.85126 64.6211 2.20489 63.9407 2.91215C63.323 3.55227 63.0141 4.35577 63.0141 5.32266C63.0141 6.34774 63.3789 7.18706 64.1086 7.8406C64.7934 8.45386 65.5365 8.76049 66.3378 8.76049C67.0271 8.76049 67.6404 8.5322 68.1776 8.07561C68.7147 7.61455 69.0169 7.06172 69.084 6.41713Z" fill="black"/>
<path d="M76.3357 9.28422C76.0268 9.57071 75.7403 9.77214 75.4762 9.88853C75.2166 10.0049 74.91 10.0631 74.5563 10.0631C73.7148 10.0631 73.0254 9.73857 72.4883 9.0895C72.0272 8.53443 71.7967 7.83165 71.7967 6.98115C71.7967 6.04111 72.0854 5.28685 72.6628 4.71836C73.1911 4.20358 73.811 3.94619 74.5228 3.94619C74.8898 3.94619 75.2099 4.01109 75.4829 4.14091C75.7605 4.26625 76.0447 4.47887 76.3357 4.77879V4.60421C76.3357 4.38934 76.3648 4.25058 76.423 4.18791C76.4812 4.12972 76.6199 4.10062 76.8393 4.10062H77.1683C77.3876 4.10062 77.5264 4.12972 77.5846 4.18791C77.6428 4.25058 77.6719 4.38934 77.6719 4.60421V9.38494C77.6719 9.60428 77.6428 9.74305 77.5846 9.80124C77.5264 9.85943 77.3876 9.88853 77.1683 9.88853H76.8393C76.6199 9.88853 76.4812 9.85943 76.423 9.80124C76.3648 9.74305 76.3357 9.60428 76.3357 9.38494V9.28422ZM74.7578 5.14808C74.2743 5.14808 73.8849 5.33609 73.5894 5.7121C73.303 6.07021 73.1597 6.51337 73.1597 7.04158C73.1597 7.60559 73.341 8.07113 73.7036 8.43819C73.9856 8.7202 74.3415 8.86121 74.7712 8.86121C75.2994 8.86121 75.7202 8.66201 76.0335 8.26362C76.2887 7.93684 76.4163 7.51831 76.4163 7.008C76.4163 6.41713 76.2462 5.95159 75.906 5.61139C75.6016 5.30252 75.2188 5.14808 74.7578 5.14808Z" fill="black"/>
<path d="M81.2776 8.63291H84.2118C84.4267 8.63291 84.5654 8.66201 84.6281 8.7202C84.6863 8.7784 84.7154 8.91716 84.7154 9.1365V9.38494C84.7154 9.60428 84.6863 9.74305 84.6281 9.80124C84.5654 9.85943 84.4267 9.88853 84.2118 9.88853H79.4714C79.2878 9.88853 79.1647 9.87286 79.1021 9.84153C79.0081 9.79229 78.9611 9.71395 78.9611 9.60652C78.9611 9.52147 79.0282 9.39837 79.1625 9.23722L82.372 5.34952H79.9279C79.7086 5.34952 79.5698 5.32042 79.5116 5.26223C79.4535 5.19956 79.4244 5.0608 79.4244 4.84593V4.60421C79.4244 4.38934 79.4535 4.25058 79.5116 4.18791C79.5698 4.12972 79.7086 4.10062 79.9279 4.10062H84.1715C84.355 4.10062 84.4759 4.11629 84.5341 4.14762C84.6281 4.19686 84.6751 4.27744 84.6751 4.38935C84.6751 4.46992 84.608 4.59078 84.4737 4.75193L81.2776 8.63291Z" fill="black"/>
<path d="M90.2347 9.28422C89.9258 9.57071 89.6394 9.77214 89.3753 9.88853C89.1156 10.0049 88.809 10.0631 88.4554 10.0631C87.6138 10.0631 86.9245 9.73857 86.3873 9.0895C85.9262 8.53443 85.6957 7.83165 85.6957 6.98115C85.6957 6.04111 85.9844 5.28685 86.5619 4.71836C87.0901 4.20358 87.7101 3.94619 88.4218 3.94619C88.7889 3.94619 89.1089 4.01109 89.382 4.14091C89.6595 4.26625 89.9438 4.47887 90.2347 4.77879V4.60421C90.2347 4.38934 90.2638 4.25058 90.322 4.18791C90.3802 4.12972 90.519 4.10062 90.7383 4.10062H91.0673C91.2867 4.10062 91.4254 4.12972 91.4836 4.18791C91.5418 4.25058 91.5709 4.38934 91.5709 4.60421V9.38494C91.5709 9.60428 91.5418 9.74305 91.4836 9.80124C91.4254 9.85943 91.2867 9.88853 91.0673 9.88853H90.7383C90.519 9.88853 90.3802 9.85943 90.322 9.80124C90.2638 9.74305 90.2347 9.60428 90.2347 9.38494V9.28422ZM88.6568 5.14808C88.1734 5.14808 87.7839 5.33609 87.4885 5.7121C87.202 6.07021 87.0587 6.51337 87.0587 7.04158C87.0587 7.60559 87.24 8.07113 87.6026 8.43819C87.8846 8.7202 88.2405 8.86121 88.6702 8.86121C89.1984 8.86121 89.6192 8.66201 89.9326 8.26362C90.1877 7.93684 90.3153 7.51831 90.3153 7.008C90.3153 6.41713 90.1452 5.95159 89.805 5.61139C89.5006 5.30252 89.1179 5.14808 88.6568 5.14808Z" fill="black"/>
<path d="M34.5244 20.883L37.2908 14.8265C37.4027 14.5714 37.5213 14.4438 37.6467 14.4438C37.7496 14.4438 37.8235 14.4751 37.8683 14.5378C37.9175 14.6005 37.9578 14.7258 37.9891 14.9138L39.4193 23.0652C39.4417 23.195 39.4529 23.2846 39.4529 23.3338C39.4529 23.4412 39.4171 23.5151 39.3454 23.5554C39.2738 23.5957 39.144 23.6158 38.956 23.6158H38.5598C38.345 23.6158 38.2107 23.5934 38.157 23.5487C38.1033 23.4994 38.0607 23.3696 38.0294 23.1592L37.2102 18.0831L34.8669 23.2465C34.7952 23.3987 34.7371 23.4972 34.6923 23.542C34.652 23.5867 34.5893 23.6091 34.5043 23.6091C34.4237 23.6091 34.361 23.5867 34.3163 23.542C34.2715 23.4972 34.2156 23.3965 34.1484 23.2398L31.8588 18.0831L30.9523 23.1659C30.9165 23.3763 30.8717 23.5039 30.818 23.5487C30.7643 23.5934 30.6322 23.6158 30.4219 23.6158H30.019C29.8265 23.6158 29.6945 23.5957 29.6228 23.5554C29.5512 23.5151 29.5154 23.439 29.5154 23.3271C29.5154 23.2823 29.5288 23.1928 29.5557 23.0585L31.1537 14.9071C31.1851 14.728 31.2231 14.6072 31.2679 14.5445C31.3127 14.4819 31.3843 14.4505 31.4828 14.4505C31.5678 14.4505 31.6327 14.4729 31.6775 14.5177C31.7222 14.5624 31.7782 14.6654 31.8453 14.8265L34.5244 20.883Z" fill="black"/>
<path d="M45.4758 23.0115C45.1669 23.298 44.8804 23.4994 44.6163 23.6158C44.3567 23.7322 44.0501 23.7904 43.6964 23.7904C42.8549 23.7904 42.1655 23.4659 41.6284 22.8168C41.1673 22.2617 40.9368 21.5589 40.9368 20.7084C40.9368 19.7684 41.2255 19.0141 41.803 18.4456C42.3312 17.9309 42.9511 17.6735 43.6629 17.6735C44.0299 17.6735 44.35 17.7384 44.623 17.8682C44.9006 17.9935 45.1848 18.2062 45.4758 18.5061V18.3315C45.4758 18.1166 45.5049 17.9779 45.5631 17.9152C45.6213 17.857 45.76 17.8279 45.9794 17.8279H46.3084C46.5277 17.8279 46.6665 17.857 46.7247 17.9152C46.7829 17.9779 46.812 18.1166 46.812 18.3315V23.1122C46.812 23.3316 46.7829 23.4703 46.7247 23.5285C46.6665 23.5867 46.5277 23.6158 46.3084 23.6158H45.9794C45.76 23.6158 45.6213 23.5867 45.5631 23.5285C45.5049 23.4703 45.4758 23.3316 45.4758 23.1122V23.0115ZM43.8979 18.8754C43.4144 18.8754 43.025 19.0634 42.7296 19.4394C42.4431 19.7975 42.2998 20.2407 42.2998 20.7689C42.2998 21.3329 42.4811 21.7984 42.8437 22.1655C43.1257 22.4475 43.4816 22.5885 43.9113 22.5885C44.4395 22.5885 44.8603 22.3893 45.1736 21.9909C45.4288 21.6641 45.5564 21.2456 45.5564 20.7353C45.5564 20.1444 45.3863 19.6789 45.0461 19.3387C44.7417 19.0298 44.3589 18.8754 43.8979 18.8754Z" fill="black"/>
<path d="M49.8402 14.0879V23.1122C49.8402 23.3316 49.8111 23.4703 49.7529 23.5285C49.6947 23.5867 49.556 23.6158 49.3366 23.6158H49.0076C48.7883 23.6158 48.6495 23.5867 48.5913 23.5285C48.5331 23.4703 48.504 23.3316 48.504 23.1122V14.0879C48.504 13.8731 48.5331 13.7365 48.5913 13.6783C48.6495 13.6157 48.7883 13.5843 49.0076 13.5843H49.3366C49.556 13.5843 49.6947 13.6157 49.7529 13.6783C49.8111 13.7365 49.8402 13.8731 49.8402 14.0879Z" fill="black"/>
<path d="M55.8027 23.0115C55.4938 23.298 55.2074 23.4994 54.9433 23.6158C54.6836 23.7322 54.377 23.7904 54.0234 23.7904C53.1818 23.7904 52.4925 23.4659 51.9553 22.8168C51.4942 22.2617 51.2637 21.5589 51.2637 20.7084C51.2637 19.7684 51.5524 19.0141 52.1299 18.4456C52.6581 17.9309 53.2781 17.6735 53.9898 17.6735C54.3569 17.6735 54.6769 17.7384 54.95 17.8682C55.2275 17.9935 55.5117 18.2062 55.8027 18.5061V18.3315C55.8027 18.1166 55.8318 17.9779 55.89 17.9152C55.9482 17.857 56.087 17.8279 56.3063 17.8279H56.6353C56.8546 17.8279 56.9934 17.857 57.0516 17.9152C57.1098 17.9779 57.1389 18.1166 57.1389 18.3315V23.1122C57.1389 23.3316 57.1098 23.4703 57.0516 23.5285C56.9934 23.5867 56.8546 23.6158 56.6353 23.6158H56.3063C56.087 23.6158 55.9482 23.5867 55.89 23.5285C55.8318 23.4703 55.8027 23.3316 55.8027 23.1122V23.0115ZM54.2248 18.8754C53.7414 18.8754 53.3519 19.0634 53.0565 19.4394C52.77 19.7975 52.6267 20.2407 52.6267 20.7689C52.6267 21.3329 52.808 21.7984 53.1706 22.1655C53.4526 22.4475 53.8085 22.5885 54.2382 22.5885C54.7664 22.5885 55.1872 22.3893 55.5006 21.9909C55.7557 21.6641 55.8833 21.2456 55.8833 20.7353C55.8833 20.1444 55.7132 19.6789 55.373 19.3387C55.0686 19.0298 54.6859 18.8754 54.2248 18.8754Z" fill="black"/>
<path d="M60.6372 22.5415L58.3811 18.4524C58.2916 18.2912 58.2468 18.1793 58.2468 18.1166C58.2468 18.0092 58.2826 17.9353 58.3542 17.8951C58.4303 17.8503 58.5624 17.8279 58.7504 17.8279H59.207C59.3994 17.8279 59.5181 17.8413 59.5628 17.8682C59.6076 17.8951 59.677 17.9958 59.771 18.1704L61.3556 21.1583L62.8328 18.1771C62.9179 18.0025 62.9828 17.9018 63.0275 17.8749C63.0768 17.8436 63.1999 17.8279 63.3968 17.8279H63.8131C63.9922 17.8279 64.1086 17.8413 64.1623 17.8682C64.2652 17.913 64.3167 17.9935 64.3167 18.1099C64.3167 18.1771 64.2764 18.289 64.1958 18.4456L60.0866 26.4292C59.997 26.5993 59.9277 26.6978 59.8784 26.7246C59.8337 26.756 59.715 26.7716 59.5225 26.7716H59.0861C58.9115 26.7716 58.7951 26.7582 58.7369 26.7314C58.634 26.6866 58.5825 26.606 58.5825 26.4896C58.5825 26.427 58.6273 26.3128 58.7168 26.1472L60.6372 22.5415Z" fill="black"/>
<path d="M68.2246 19.05L67.9828 19.1775C67.8217 19.2671 67.7143 19.3118 67.6605 19.3118C67.5665 19.3118 67.4815 19.2648 67.4054 19.1708C67.2487 18.9739 67.0853 18.8754 66.9152 18.8754C66.7899 18.8754 66.6825 18.9157 66.5929 18.9962C66.5079 19.0768 66.4654 19.1731 66.4654 19.285C66.4654 19.4103 66.5146 19.5155 66.6131 19.6005C66.716 19.6856 66.9242 19.802 67.2375 19.9497C67.7389 20.178 68.1059 20.375 68.3387 20.5406C68.8042 20.8629 69.037 21.2971 69.037 21.8432C69.037 22.3938 68.8333 22.8593 68.426 23.2398C68.0321 23.6069 67.5464 23.7904 66.9689 23.7904C66.6198 23.7904 66.2885 23.7143 65.9752 23.5621C65.6618 23.4099 65.4089 23.204 65.2165 22.9444C65.0777 22.7564 65.0083 22.6109 65.0083 22.5079C65.0083 22.4274 65.0307 22.3647 65.0754 22.3199C65.1202 22.2752 65.2165 22.2192 65.3642 22.1521L65.6193 22.0312C65.7805 21.9596 65.8879 21.9238 65.9416 21.9238C66.0088 21.9238 66.0602 21.9417 66.0961 21.9775C66.1363 22.0133 66.2214 22.1185 66.3512 22.2931C66.49 22.49 66.7048 22.5885 66.9958 22.5885C67.1972 22.5885 67.3606 22.5325 67.486 22.4206C67.6113 22.3087 67.674 22.1588 67.674 21.9708C67.674 21.7828 67.6068 21.6373 67.4725 21.5343C67.3427 21.4269 66.9645 21.2187 66.3378 20.9099C65.9125 20.704 65.626 20.5025 65.4783 20.3056C65.2993 20.0683 65.2097 19.7706 65.2097 19.4125C65.2097 18.8754 65.3933 18.4501 65.7603 18.1368C66.1229 17.8279 66.5392 17.6735 67.0092 17.6735C67.3226 17.6735 67.6113 17.7473 67.8754 17.8951C68.144 18.0428 68.3521 18.2442 68.4998 18.4994C68.5401 18.571 68.5603 18.6381 68.5603 18.7008C68.5603 18.7724 68.5401 18.8306 68.4998 18.8754C68.4596 18.9157 68.3678 18.9739 68.2246 19.05Z" fill="black"/>
<path d="M71.5818 18.3315V23.1122C71.5818 23.3271 71.5527 23.4659 71.4945 23.5285C71.4363 23.5867 71.2976 23.6158 71.0782 23.6158H70.7492C70.5299 23.6158 70.3911 23.5867 70.3329 23.5285C70.2747 23.4659 70.2456 23.3271 70.2456 23.1122V18.3315C70.2456 18.1166 70.2747 17.9779 70.3329 17.9152C70.3911 17.857 70.5299 17.8279 70.7492 17.8279H71.0782C71.2976 17.8279 71.4363 17.857 71.4945 17.9152C71.5527 17.9779 71.5818 18.1166 71.5818 18.3315ZM70.9104 14.5714C71.1521 14.5714 71.358 14.6564 71.5281 14.8265C71.6982 14.9922 71.7832 15.1958 71.7832 15.4375C71.7832 15.6793 71.6982 15.8852 71.5281 16.0553C71.358 16.2254 71.1543 16.3104 70.9171 16.3104C70.6754 16.3104 70.4694 16.2254 70.2993 16.0553C70.1292 15.8807 70.0442 15.6726 70.0442 15.4308C70.0442 15.1981 70.1292 14.9966 70.2993 14.8265C70.4694 14.6564 70.6731 14.5714 70.9104 14.5714Z" fill="black"/>
<path d="M77.5443 23.0115C77.2354 23.298 76.9489 23.4994 76.6848 23.6158C76.4252 23.7322 76.1186 23.7904 75.7649 23.7904C74.9234 23.7904 74.234 23.4659 73.6969 22.8168C73.2358 22.2617 73.0053 21.5589 73.0053 20.7084C73.0053 19.7684 73.294 19.0141 73.8715 18.4456C74.3997 17.9309 75.0196 17.6735 75.7314 17.6735C76.0984 17.6735 76.4185 17.7384 76.6916 17.8682C76.9691 17.9935 77.2533 18.2062 77.5443 18.5061V18.3315C77.5443 18.1166 77.5734 17.9779 77.6316 17.9152C77.6898 17.857 77.8285 17.8279 78.0479 17.8279H78.3769C78.5962 17.8279 78.735 17.857 78.7932 17.9152C78.8514 17.9779 78.8805 18.1166 78.8805 18.3315V23.1122C78.8805 23.3316 78.8514 23.4703 78.7932 23.5285C78.735 23.5867 78.5962 23.6158 78.3769 23.6158H78.0479C77.8285 23.6158 77.6898 23.5867 77.6316 23.5285C77.5734 23.4703 77.5443 23.3316 77.5443 23.1122V23.0115ZM75.9664 18.8754C75.4829 18.8754 75.0935 19.0634 74.7981 19.4394C74.5116 19.7975 74.3683 20.2407 74.3683 20.7689C74.3683 21.3329 74.5496 21.7984 74.9122 22.1655C75.1942 22.4475 75.5501 22.5885 75.9798 22.5885C76.508 22.5885 76.9288 22.3893 77.2421 21.9909C77.4973 21.6641 77.6249 21.2456 77.6249 20.7353C77.6249 20.1444 77.4548 19.6789 77.1146 19.3387C76.8102 19.0298 76.4274 18.8754 75.9664 18.8754Z" fill="black"/>
</svg>
