<?xml version="1.0" encoding="utf-8"?>
<!-- Generator: Adobe Illustrator 17.0.0, SVG Export Plug-In . SVG Version: 6.00 Build 0)  -->
<!DOCTYPE svg PUBLIC "-//W3C//DTD SVG 1.1//EN" "http://www.w3.org/Graphics/SVG/1.1/DTD/svg11.dtd">
<svg version="1.1" id="Calque_1" xmlns="http://www.w3.org/2000/svg" xmlns:xlink="http://www.w3.org/1999/xlink" x="0px" y="0px"
	 width="340px" height="134px" viewBox="0 5.5 340 134" enable-background="new 0 5.5 340 134" xml:space="preserve">
<g>
	<g>
		<defs>
			<rect id="SVGID_1_" y="-63" width="340" height="340"/>
		</defs>
		<clipPath id="SVGID_2_">
			<use xlink:href="#SVGID_1_"  overflow="visible"/>
		</clipPath>
		<path clip-path="url(#SVGID_2_)" fill="#681137" d="M48.298,102.685c0,0-11.414-0.352-16.264-5.739
			c-4.849-5.386-17.45-4.585-17.874-6.286C22.392,100.341,33.772,104.35,48.298,102.685"/>
	</g>
	<g>
		<defs>
			<rect id="SVGID_3_" y="-63" width="340" height="340"/>
		</defs>
		<clipPath id="SVGID_4_">
			<use xlink:href="#SVGID_3_"  overflow="visible"/>
		</clipPath>
		<path clip-path="url(#SVGID_4_)" fill="#681137" d="M16.867,90.533c0,0,11.415,0.352,16.264,5.739
			c4.849,5.386,17.45,4.585,17.874,6.286C42.773,92.877,31.393,88.868,16.867,90.533"/>
	</g>
	<g>
		<defs>
			<rect id="SVGID_5_" y="-63" width="340" height="340"/>
		</defs>
		<clipPath id="SVGID_6_">
			<use xlink:href="#SVGID_5_"  overflow="visible"/>
		</clipPath>
		<path clip-path="url(#SVGID_6_)" fill="#681137" d="M106.128,102.685c0,0,11.414-0.352,16.263-5.739
			c4.85-5.386,17.451-4.585,17.875-6.286C132.034,100.341,120.654,104.35,106.128,102.685"/>
	</g>
	<g>
		<defs>
			<rect id="SVGID_7_" y="-63" width="340" height="340"/>
		</defs>
		<clipPath id="SVGID_8_">
			<use xlink:href="#SVGID_7_"  overflow="visible"/>
		</clipPath>
		<path clip-path="url(#SVGID_8_)" fill="#681137" d="M137.559,90.533c0,0-11.415,0.352-16.264,5.739
			c-4.849,5.386-17.45,4.585-17.874,6.286C111.653,92.877,123.033,88.868,137.559,90.533"/>
	</g>
	<g>
		<defs>
			<rect id="SVGID_9_" y="-63" width="340" height="340"/>
		</defs>
		<clipPath id="SVGID_10_">
			<use xlink:href="#SVGID_9_"  overflow="visible"/>
		</clipPath>
		<path clip-path="url(#SVGID_10_)" fill="#681137" d="M32.131,89.083c0,0-10.813-3.674-13.875-10.243
			c-3.063-6.569-15.348-9.486-15.255-11.237C8.042,79.268,17.753,86.428,32.131,89.083"/>
	</g>
	<g>
		<defs>
			<rect id="SVGID_11_" y="-63" width="340" height="340"/>
		</defs>
		<clipPath id="SVGID_12_">
			<use xlink:href="#SVGID_11_"  overflow="visible"/>
		</clipPath>
		<path clip-path="url(#SVGID_12_)" fill="#681137" d="M5.769,68.403c0,0,10.813,3.674,13.875,10.243
			c3.063,6.569,15.348,9.486,15.256,11.237C29.858,78.217,20.147,71.057,5.769,68.403"/>
	</g>
	<g>
		<defs>
			<rect id="SVGID_13_" y="-63" width="340" height="340"/>
		</defs>
		<clipPath id="SVGID_14_">
			<use xlink:href="#SVGID_13_"  overflow="visible"/>
		</clipPath>
		<path clip-path="url(#SVGID_14_)" fill="#681137" d="M122.296,87.808c0,0,10.813-3.673,13.875-10.243
			c3.063-6.569,15.348-9.486,15.255-11.237C146.385,77.993,136.674,85.154,122.296,87.808"/>
	</g>
	<g>
		<defs>
			<rect id="SVGID_15_" y="-63" width="340" height="340"/>
		</defs>
		<clipPath id="SVGID_16_">
			<use xlink:href="#SVGID_15_"  overflow="visible"/>
		</clipPath>
		<path clip-path="url(#SVGID_16_)" fill="#681137" d="M148.657,67.128c0,0-10.813,3.674-13.875,10.243
			c-3.063,6.569-15.348,9.486-15.256,11.237C124.568,76.943,134.279,69.783,148.657,67.128"/>
	</g>
	<g>
		<defs>
			<rect id="SVGID_17_" y="-63" width="340" height="340"/>
		</defs>
		<clipPath id="SVGID_18_">
			<use xlink:href="#SVGID_17_"  overflow="visible"/>
		</clipPath>
		<path clip-path="url(#SVGID_18_)" fill="#681137" d="M21.305,27.91c0,0-13.314,31.063,9.055,50.158
			C23.954,64.05,18.862,38.735,21.305,27.91"/>
	</g>
	<g>
		<defs>
			<rect id="SVGID_19_" y="-63" width="340" height="340"/>
		</defs>
		<clipPath id="SVGID_20_">
			<use xlink:href="#SVGID_19_"  overflow="visible"/>
		</clipPath>
		<path clip-path="url(#SVGID_20_)" fill="#681137" d="M21.751,29.521c-0.748,9.22,1.885,30.108,9.57,47.923
			c0,0,3.561-14.266-3.619-29.349C24.884,42.352,23.022,35.432,21.751,29.521"/>
	</g>
	<g>
		<defs>
			<rect id="SVGID_21_" y="-63" width="340" height="340"/>
		</defs>
		<clipPath id="SVGID_22_">
			<use xlink:href="#SVGID_21_"  overflow="visible"/>
		</clipPath>
		<path clip-path="url(#SVGID_22_)" fill="#681137" d="M133.121,27.91c0,0,13.314,31.063-9.055,50.158
			C130.472,64.05,135.564,38.735,133.121,27.91"/>
	</g>
	<g>
		<defs>
			<rect id="SVGID_23_" y="-63" width="340" height="340"/>
		</defs>
		<clipPath id="SVGID_24_">
			<use xlink:href="#SVGID_23_"  overflow="visible"/>
		</clipPath>
		<path clip-path="url(#SVGID_24_)" fill="#681137" d="M132.675,29.521c0.747,9.22-1.885,30.108-9.57,47.923
			c0,0-3.561-14.266,3.619-29.349C129.542,42.352,131.404,35.432,132.675,29.521"/>
	</g>
	<g>
		<defs>
			<rect id="SVGID_25_" y="-63" width="340" height="340"/>
		</defs>
		<clipPath id="SVGID_26_">
			<use xlink:href="#SVGID_25_"  overflow="visible"/>
		</clipPath>
		<path clip-path="url(#SVGID_26_)" fill="#681137" d="M34.075,10.219c0,0,16.192,24.742-0.181,44.593
			C37.283,41.76,37.825,19.175,34.075,10.219"/>
	</g>
	<g>
		<defs>
			<rect id="SVGID_27_" y="-63" width="340" height="340"/>
		</defs>
		<clipPath id="SVGID_28_">
			<use xlink:href="#SVGID_27_"  overflow="visible"/>
		</clipPath>
		<path clip-path="url(#SVGID_28_)" fill="#681137" d="M33.936,11.675c2.045,7.83,2.951,26.229-0.964,42.745
			c0,0-5.236-11.75-1.342-25.837C33.186,23.206,33.739,16.961,33.936,11.675"/>
	</g>
	<g>
		<defs>
			<rect id="SVGID_29_" y="-63" width="340" height="340"/>
		</defs>
		<clipPath id="SVGID_30_">
			<use xlink:href="#SVGID_29_"  overflow="visible"/>
		</clipPath>
		<path clip-path="url(#SVGID_30_)" fill="#681137" d="M120.351,10.219c0,0-16.192,24.742,0.181,44.593
			C117.142,41.76,116.601,19.175,120.351,10.219"/>
	</g>
	<g>
		<defs>
			<rect id="SVGID_31_" y="-63" width="340" height="340"/>
		</defs>
		<clipPath id="SVGID_32_">
			<use xlink:href="#SVGID_31_"  overflow="visible"/>
		</clipPath>
		<path clip-path="url(#SVGID_32_)" fill="#681137" d="M120.49,11.675c-2.045,7.83-2.951,26.229,0.964,42.745
			c0,0,5.236-11.75,1.342-25.837C121.24,23.206,120.687,16.961,120.49,11.675"/>
	</g>
	<g>
		<defs>
			<rect id="SVGID_33_" y="-63" width="340" height="340"/>
		</defs>
		<clipPath id="SVGID_34_">
			<use xlink:href="#SVGID_33_"  overflow="visible"/>
		</clipPath>
		<path clip-path="url(#SVGID_34_)" fill="#681137" d="M29.955,106.677c18.828-5.318,35.89,2.307,47.258,21.078
			c11.368-18.771,28.43-26.396,47.259-21.078c-20.105,0.432-35.859,10.843-47.259,31.23C65.813,117.52,50.06,107.109,29.955,106.677
			"/>
	</g>
	<g>
		<defs>
			<rect id="SVGID_35_" y="-63" width="340" height="340"/>
		</defs>
		<clipPath id="SVGID_36_">
			<use xlink:href="#SVGID_35_"  overflow="visible"/>
		</clipPath>
		<path clip-path="url(#SVGID_36_)" fill="#681137" d="M32.641,108.468c0,0,14.463,4.083,18.94,12.505s20.822,11.41,20.822,13.718
			C64.974,119.707,51.719,110.967,32.641,108.468"/>
	</g>
	<g>
		<defs>
			<rect id="SVGID_37_" y="-63" width="340" height="340"/>
		</defs>
		<clipPath id="SVGID_38_">
			<use xlink:href="#SVGID_37_"  overflow="visible"/>
		</clipPath>
		<path clip-path="url(#SVGID_38_)" fill="#681137" d="M121.785,108.468c0,0-14.462,4.083-18.939,12.505
			c-4.478,8.422-20.822,11.41-20.822,13.718C89.453,119.707,102.707,110.967,121.785,108.468"/>
	</g>
	<g>
		<defs>
			<rect id="SVGID_39_" y="-63" width="340" height="340"/>
		</defs>
		<clipPath id="SVGID_40_">
			<use xlink:href="#SVGID_39_"  overflow="visible"/>
		</clipPath>
		<path clip-path="url(#SVGID_40_)" fill="#681137" d="M51.726,105.078c9.937-2.806,19.487,2.674,25.487,12.581
			c5.999-9.907,15.55-15.387,25.486-12.581c-10.61,0.229-19.47,7.179-25.486,17.938C71.197,112.257,62.336,105.307,51.726,105.078"
			/>
	</g>
	<g>
		<defs>
			<rect id="SVGID_41_" y="-63" width="340" height="340"/>
		</defs>
		<clipPath id="SVGID_42_">
			<use xlink:href="#SVGID_41_"  overflow="visible"/>
		</clipPath>
		<polygon clip-path="url(#SVGID_42_)" fill="#681137" points="106.869,67.906 92.508,76.161 89.622,74.502 47.556,50.321 
			47.556,47.003 77.213,64.05 106.869,47.003 106.869,50.321 80.099,65.709 82.311,66.981 106.869,52.864 106.869,56.183 
			85.198,68.64 87.41,69.912 106.869,58.726 106.869,62.044 90.297,71.572 92.508,72.843 106.869,64.588 		"/>
	</g>
	<g>
		<defs>
			<rect id="SVGID_43_" y="-63" width="340" height="340"/>
		</defs>
		<clipPath id="SVGID_44_">
			<use xlink:href="#SVGID_43_"  overflow="visible"/>
		</clipPath>
		<polygon clip-path="url(#SVGID_44_)" fill="#681137" points="47.557,58.726 83.723,79.516 83.723,96.745 80.849,98.016 
			80.849,81.183 47.557,62.044 		"/>
	</g>
	<g>
		<defs>
			<rect id="SVGID_45_" y="-63" width="340" height="340"/>
		</defs>
		<clipPath id="SVGID_46_">
			<use xlink:href="#SVGID_45_"  overflow="visible"/>
		</clipPath>
		<polygon clip-path="url(#SVGID_46_)" fill="#681137" points="47.557,52.864 88.809,76.578 88.809,94.201 85.935,95.473 
			85.935,78.245 47.557,56.183 		"/>
	</g>
	<g>
		<defs>
			<rect id="SVGID_47_" y="-63" width="340" height="340"/>
		</defs>
		<clipPath id="SVGID_48_">
			<use xlink:href="#SVGID_47_"  overflow="visible"/>
		</clipPath>
		<polygon clip-path="url(#SVGID_48_)" fill="#681137" points="78.701,82.492 78.701,98.967 77.274,99.598 75.827,98.958 
			75.827,84.159 73.7,82.935 73.7,98.016 70.826,96.745 70.826,81.284 68.613,80.012 68.613,95.473 65.739,94.201 65.739,78.359 
			47.556,67.907 47.556,64.588 		"/>
	</g>
	<g>
		<defs>
			<rect id="SVGID_49_" y="-63" width="340" height="340"/>
		</defs>
		<clipPath id="SVGID_50_">
			<use xlink:href="#SVGID_49_"  overflow="visible"/>
		</clipPath>
		<path clip-path="url(#SVGID_50_)" fill="#681137" d="M163.326,98.444h1.086c0.138,0,0.224,0.127,0.224,0.329v17.068
			c0,0.229-0.086,0.356-0.224,0.356h-1.086c-0.155,0-0.242-0.127-0.242-0.356v-7.583h-2.654v7.583c0,0.229-0.086,0.356-0.224,0.356
			h-1.086c-0.155,0-0.241-0.127-0.241-0.356V98.773c0-0.202,0.086-0.329,0.241-0.329h1.086c0.138,0,0.224,0.127,0.224,0.329v7.38
			h2.654v-7.38C163.084,98.571,163.171,98.444,163.326,98.444"/>
	</g>
	<g>
		<defs>
			<rect id="SVGID_51_" y="-63" width="340" height="340"/>
		</defs>
		<clipPath id="SVGID_52_">
			<use xlink:href="#SVGID_51_"  overflow="visible"/>
		</clipPath>
		<path clip-path="url(#SVGID_52_)" fill="#681137" d="M170.356,111.961v-9.283c0-1.394-0.586-2.357-1.465-2.357
			s-1.482,0.963-1.482,2.535v8.927c0,1.573,0.603,2.537,1.482,2.537S170.356,113.356,170.356,111.961 M165.84,111.682v-8.725
			c0-2.839,1.259-4.767,3.051-4.767c1.793,0,3.034,1.928,3.034,4.59v9.08c0,2.662-1.241,4.591-3.034,4.591
			C167.099,116.451,165.84,114.522,165.84,111.682"/>
	</g>
	<g>
		<defs>
			<rect id="SVGID_53_" y="-63" width="340" height="340"/>
		</defs>
		<clipPath id="SVGID_54_">
			<use xlink:href="#SVGID_53_"  overflow="visible"/>
		</clipPath>
		<path clip-path="url(#SVGID_54_)" fill="#681137" d="M175.887,107.676c0.896,0,1.431-0.812,1.431-2.182v-2.739
			c0-1.471-0.535-2.434-1.379-2.434c-0.845,0-1.362,0.963-1.362,2.434v4.921H175.887z M173.026,115.842v-12.985
			c0-2.764,1.121-4.693,2.896-4.693c1.792,0,2.964,1.929,2.964,4.693v2.588c0,2.585-1.154,4.361-2.947,4.361h-1.362v6.036
			c0,0.229-0.086,0.355-0.224,0.355h-1.103C173.112,116.197,173.026,116.071,173.026,115.842"/>
	</g>
	<g>
		<defs>
			<rect id="SVGID_55_" y="-63" width="340" height="340"/>
		</defs>
		<clipPath id="SVGID_56_">
			<use xlink:href="#SVGID_55_"  overflow="visible"/>
		</clipPath>
		<path clip-path="url(#SVGID_56_)" fill="#681137" d="M179.69,111.733v-8.826c0-2.612,1.207-4.54,2.948-4.54h1.81
			c0.138,0,0.223,0.127,0.223,0.33v1.445c0,0.229-0.085,0.356-0.223,0.356h-1.69c-0.896,0-1.499,1.014-1.499,2.46v3.221h2.758
			c0.155,0,0.241,0.127,0.241,0.355v1.369c0,0.228-0.086,0.355-0.241,0.355h-2.758v3.424c0,1.446,0.603,2.459,1.499,2.459h1.69
			c0.138,0,0.223,0.128,0.223,0.356v1.446c0,0.202-0.085,0.329-0.223,0.329h-1.81C180.897,116.272,179.69,114.345,179.69,111.733"/>
	</g>
	<g>
		<defs>
			<rect id="SVGID_57_" y="-63" width="340" height="340"/>
		</defs>
		<clipPath id="SVGID_58_">
			<use xlink:href="#SVGID_57_"  overflow="visible"/>
		</clipPath>
		<path clip-path="url(#SVGID_58_)" fill="#681137" d="M188.718,115.842v-12.858c0-2.613,1.189-4.539,2.93-4.539h1.517
			c0.155,0,0.241,0.126,0.241,0.329v1.446c0,0.228-0.086,0.355-0.241,0.355h-1.396c-0.897,0-1.5,1.014-1.5,2.459v3.298h2.568
			c0.138,0,0.224,0.127,0.224,0.328v1.447c0,0.203-0.086,0.33-0.224,0.33h-2.568v7.405c0,0.229-0.086,0.355-0.224,0.355h-1.103
			C188.804,116.197,188.718,116.071,188.718,115.842"/>
	</g>
	<g>
		<defs>
			<rect id="SVGID_59_" y="-63" width="340" height="340"/>
		</defs>
		<clipPath id="SVGID_60_">
			<use xlink:href="#SVGID_59_"  overflow="visible"/>
		</clipPath>
		<path clip-path="url(#SVGID_60_)" fill="#681137" d="M198.368,111.961v-9.283c0-1.394-0.586-2.357-1.465-2.357
			s-1.482,0.963-1.482,2.535v8.927c0,1.573,0.603,2.537,1.482,2.537S198.368,113.356,198.368,111.961 M193.852,111.682v-8.725
			c0-2.839,1.258-4.767,3.051-4.767s3.034,1.928,3.034,4.59v9.08c0,2.662-1.241,4.591-3.034,4.591S193.852,114.522,193.852,111.682"
			/>
	</g>
	<g>
		<defs>
			<rect id="SVGID_61_" y="-63" width="340" height="340"/>
		</defs>
		<clipPath id="SVGID_62_">
			<use xlink:href="#SVGID_61_"  overflow="visible"/>
		</clipPath>
		<path clip-path="url(#SVGID_62_)" fill="#681137" d="M202.365,98.444c0.138,0,0.225,0.127,0.225,0.354v13.112
			c0,1.446,0.534,2.41,1.396,2.41c0.861,0,1.396-0.964,1.396-2.41V98.798c0-0.227,0.103-0.354,0.241-0.354h1.086
			c0.155,0,0.241,0.127,0.241,0.354v13.011c0,2.739-1.171,4.666-2.964,4.666s-2.948-1.927-2.948-4.666V98.798
			c0-0.227,0.086-0.354,0.224-0.354H202.365z"/>
	</g>
	<g>
		<defs>
			<rect id="SVGID_63_" y="-63" width="340" height="340"/>
		</defs>
		<clipPath id="SVGID_64_">
			<use xlink:href="#SVGID_63_"  overflow="visible"/>
		</clipPath>
		<path clip-path="url(#SVGID_64_)" fill="#681137" d="M208.257,115.842v-13.01c0-2.739,1.155-4.668,2.947-4.668
			c1.793,0,2.965,1.929,2.965,4.668v13.01c0,0.229-0.086,0.355-0.241,0.355h-1.086c-0.138,0-0.241-0.126-0.241-0.355v-13.111
			c0-1.447-0.534-2.41-1.397-2.41c-0.861,0-1.396,0.963-1.396,2.41v13.111c0,0.229-0.086,0.355-0.224,0.355h-1.103
			C208.343,116.197,208.257,116.071,208.257,115.842"/>
	</g>
	<g>
		<defs>
			<rect id="SVGID_65_" y="-63" width="340" height="340"/>
		</defs>
		<clipPath id="SVGID_66_">
			<use xlink:href="#SVGID_65_"  overflow="visible"/>
		</clipPath>
		<path clip-path="url(#SVGID_66_)" fill="#681137" d="M218.441,114.142c0.896,0,1.431-0.963,1.431-2.408v-8.827
			c0-1.445-0.517-2.409-1.431-2.409h-1.31v13.644H218.441z M215.563,115.258V99.382c0-0.658,0.258-1.015,0.707-1.015h2.223
			c1.81,0,2.947,1.928,2.947,4.591v8.725c0,2.663-1.154,4.59-2.947,4.59h-2.223C215.821,116.273,215.563,115.918,215.563,115.258"/>
	</g>
	<g>
		<defs>
			<rect id="SVGID_67_" y="-63" width="340" height="340"/>
		</defs>
		<clipPath id="SVGID_68_">
			<use xlink:href="#SVGID_67_"  overflow="visible"/>
		</clipPath>
		<path clip-path="url(#SVGID_68_)" fill="#681137" d="M226.903,108.107v-5.352c0-1.521-0.5-2.409-1.397-2.409
			c-0.878,0-1.396,0.888-1.396,2.409v5.352H226.903z M222.559,115.842v-12.985c0-2.789,1.172-4.666,2.947-4.666
			c1.776,0,2.965,1.877,2.965,4.666v12.985c0,0.229-0.086,0.355-0.241,0.355h-1.086c-0.138,0-0.241-0.126-0.241-0.355v-5.63h-2.793
			v5.63c0,0.229-0.086,0.355-0.223,0.355h-1.103C222.645,116.197,222.559,116.071,222.559,115.842"/>
	</g>
	<g>
		<defs>
			<rect id="SVGID_69_" y="-63" width="340" height="340"/>
		</defs>
		<clipPath id="SVGID_70_">
			<use xlink:href="#SVGID_69_"  overflow="visible"/>
		</clipPath>
		<path clip-path="url(#SVGID_70_)" fill="#681137" d="M234.416,98.773v1.446c0,0.229-0.087,0.356-0.242,0.356h-1.862v15.266
			c0,0.229-0.085,0.356-0.24,0.356h-1.086c-0.138,0-0.225-0.127-0.225-0.356v-15.266h-1.878c-0.138,0-0.224-0.127-0.224-0.356
			v-1.446c0-0.202,0.086-0.329,0.224-0.329h5.291C234.329,98.444,234.416,98.571,234.416,98.773"/>
	</g>
	<g>
		<defs>
			<rect id="SVGID_71_" y="-63" width="340" height="340"/>
		</defs>
		<clipPath id="SVGID_72_">
			<use xlink:href="#SVGID_71_"  overflow="visible"/>
		</clipPath>
		<path clip-path="url(#SVGID_72_)" fill="#681137" d="M235.846,98.444h1.085c0.139,0,0.225,0.127,0.225,0.329v17.068
			c0,0.229-0.086,0.356-0.225,0.356h-1.085c-0.155,0-0.242-0.127-0.242-0.356V98.773C235.604,98.571,235.691,98.444,235.846,98.444"
			/>
	</g>
	<g>
		<defs>
			<rect id="SVGID_73_" y="-63" width="340" height="340"/>
		</defs>
		<clipPath id="SVGID_74_">
			<use xlink:href="#SVGID_73_"  overflow="visible"/>
		</clipPath>
		<path clip-path="url(#SVGID_74_)" fill="#681137" d="M242.894,111.961v-9.283c0-1.394-0.586-2.357-1.465-2.357
			s-1.483,0.963-1.483,2.535v8.927c0,1.573,0.604,2.537,1.483,2.537S242.894,113.356,242.894,111.961 M238.378,111.682v-8.725
			c0-2.839,1.258-4.767,3.051-4.767c1.792,0,3.033,1.928,3.033,4.59v9.08c0,2.662-1.241,4.591-3.033,4.591
			C239.636,116.451,238.378,114.522,238.378,111.682"/>
	</g>
	<g>
		<defs>
			<rect id="SVGID_75_" y="-63" width="340" height="340"/>
		</defs>
		<clipPath id="SVGID_76_">
			<use xlink:href="#SVGID_75_"  overflow="visible"/>
		</clipPath>
		<path clip-path="url(#SVGID_76_)" fill="#681137" d="M245.563,115.842v-13.01c0-2.739,1.155-4.668,2.947-4.668
			c1.793,0,2.966,1.929,2.966,4.668v13.01c0,0.229-0.088,0.355-0.242,0.355h-1.086c-0.138,0-0.242-0.126-0.242-0.355v-13.111
			c0-1.447-0.534-2.41-1.396-2.41s-1.396,0.963-1.396,2.41v13.111c0,0.229-0.086,0.355-0.223,0.355h-1.104
			C245.649,116.197,245.563,116.071,245.563,115.842"/>
	</g>
	<g>
		<defs>
			<rect id="SVGID_77_" y="-63" width="340" height="340"/>
		</defs>
		<clipPath id="SVGID_78_">
			<use xlink:href="#SVGID_77_"  overflow="visible"/>
		</clipPath>
		<path clip-path="url(#SVGID_78_)" fill="#681137" d="M255.952,115.842v-12.858c0-2.613,1.189-4.539,2.93-4.539h1.517
			c0.155,0,0.241,0.126,0.241,0.329v1.446c0,0.228-0.086,0.355-0.241,0.355h-1.396c-0.896,0-1.5,1.014-1.5,2.459v3.298h2.568
			c0.138,0,0.224,0.127,0.224,0.328v1.447c0,0.203-0.086,0.33-0.224,0.33h-2.568v7.405c0,0.229-0.086,0.355-0.223,0.355h-1.104
			C256.038,116.197,255.952,116.071,255.952,115.842"/>
	</g>
	<g>
		<defs>
			<rect id="SVGID_79_" y="-63" width="340" height="340"/>
		</defs>
		<clipPath id="SVGID_80_">
			<use xlink:href="#SVGID_79_"  overflow="visible"/>
		</clipPath>
		<path clip-path="url(#SVGID_80_)" fill="#681137" d="M265.603,111.961v-9.283c0-1.394-0.586-2.357-1.466-2.357
			c-0.879,0-1.482,0.963-1.482,2.535v8.927c0,1.573,0.603,2.537,1.482,2.537C265.017,114.32,265.603,113.356,265.603,111.961
			 M261.086,111.682v-8.725c0-2.839,1.26-4.767,3.051-4.767c1.794,0,3.034,1.928,3.034,4.59v9.08c0,2.662-1.24,4.591-3.034,4.591
			C262.346,116.451,261.086,114.522,261.086,111.682"/>
	</g>
	<g>
		<defs>
			<rect id="SVGID_81_" y="-63" width="340" height="340"/>
		</defs>
		<clipPath id="SVGID_82_">
			<use xlink:href="#SVGID_81_"  overflow="visible"/>
		</clipPath>
		<path clip-path="url(#SVGID_82_)" fill="#681137" d="M271.15,107.396c0.897,0,1.465-0.962,1.465-2.459v-2.182
			c0-1.471-0.568-2.434-1.395-2.434c-0.828,0-1.397,0.963-1.397,2.434v4.641H271.15z M268.272,115.842v-12.985
			c0-2.764,1.189-4.693,2.931-4.693c1.775,0,2.981,1.929,2.981,4.693v2.029c0,1.953-0.638,3.373-1.535,4.083l1.845,6.848
			c0.052,0.228-0.068,0.38-0.223,0.38h-1.173c-0.138,0-0.206-0.102-0.241-0.305l-1.637-6.391h-1.397v6.341
			c0,0.229-0.086,0.355-0.224,0.355h-1.102C268.358,116.197,268.272,116.071,268.272,115.842"/>
	</g>
	<g>
		<defs>
			<rect id="SVGID_83_" y="-63" width="340" height="340"/>
		</defs>
		<clipPath id="SVGID_84_">
			<use xlink:href="#SVGID_83_"  overflow="visible"/>
		</clipPath>
		<path clip-path="url(#SVGID_84_)" fill="#681137" d="M278.351,111.733v-8.826c0-2.612,1.207-4.54,2.947-4.54h1.81
			c0.138,0,0.223,0.127,0.223,0.33v1.445c0,0.229-0.085,0.356-0.223,0.356h-1.689c-0.897,0-1.5,1.014-1.5,2.46v3.221h2.758
			c0.156,0,0.242,0.127,0.242,0.355v1.369c0,0.228-0.086,0.355-0.242,0.355h-2.758v3.424c0,1.446,0.603,2.459,1.5,2.459h1.689
			c0.138,0,0.223,0.128,0.223,0.356v1.446c0,0.202-0.085,0.329-0.223,0.329h-1.81C279.558,116.272,278.351,114.345,278.351,111.733"
			/>
	</g>
	<g>
		<defs>
			<rect id="SVGID_85_" y="-63" width="340" height="340"/>
		</defs>
		<clipPath id="SVGID_86_">
			<use xlink:href="#SVGID_85_"  overflow="visible"/>
		</clipPath>
		<path clip-path="url(#SVGID_86_)" fill="#681137" d="M287.173,114.142c0.897,0,1.431-0.963,1.431-2.408v-8.827
			c0-1.445-0.517-2.409-1.431-2.409h-1.309v13.644H287.173z M284.295,115.258V99.382c0-0.658,0.258-1.015,0.707-1.015h2.223
			c1.81,0,2.947,1.928,2.947,4.591v8.725c0,2.663-1.154,4.59-2.947,4.59h-2.223C284.553,116.273,284.295,115.918,284.295,115.258"/>
	</g>
	<g>
		<defs>
			<rect id="SVGID_87_" y="-63" width="340" height="340"/>
		</defs>
		<clipPath id="SVGID_88_">
			<use xlink:href="#SVGID_87_"  overflow="visible"/>
		</clipPath>
		<path clip-path="url(#SVGID_88_)" fill="#681137" d="M292.618,98.444c0.137,0,0.223,0.127,0.223,0.354v13.112
			c0,1.446,0.535,2.41,1.397,2.41c0.861,0,1.396-0.964,1.396-2.41V98.798c0-0.227,0.103-0.354,0.241-0.354h1.086
			c0.156,0,0.241,0.127,0.241,0.354v13.011c0,2.739-1.171,4.666-2.964,4.666s-2.948-1.927-2.948-4.666V98.798
			c0-0.227,0.086-0.354,0.224-0.354H292.618z"/>
	</g>
	<g>
		<defs>
			<rect id="SVGID_89_" y="-63" width="340" height="340"/>
		</defs>
		<clipPath id="SVGID_90_">
			<use xlink:href="#SVGID_89_"  overflow="visible"/>
		</clipPath>
		<path clip-path="url(#SVGID_90_)" fill="#681137" d="M298.304,111.91v-9.18c0-2.739,1.189-4.566,2.947-4.566
			c1.689,0,2.845,1.903,2.896,4.87c0,0.203-0.069,0.33-0.224,0.33h-1.103c-0.138,0-0.224-0.102-0.224-0.33
			c-0.035-1.775-0.568-2.713-1.362-2.713c-0.862,0-1.362,0.862-1.362,2.282v9.434c0,1.421,0.5,2.283,1.362,2.283
			c0.88,0,1.414-1.041,1.448-2.89c0-0.229,0.086-0.331,0.224-0.331h1.103c0.138,0,0.225,0.127,0.225,0.355
			c-0.069,3.068-1.224,5.021-2.983,5.021C299.493,116.475,298.304,114.649,298.304,111.91"/>
	</g>
	<g>
		<defs>
			<rect id="SVGID_91_" y="-63" width="340" height="340"/>
		</defs>
		<clipPath id="SVGID_92_">
			<use xlink:href="#SVGID_91_"  overflow="visible"/>
		</clipPath>
		<path clip-path="url(#SVGID_92_)" fill="#681137" d="M309.316,108.107v-5.352c0-1.521-0.5-2.409-1.396-2.409
			c-0.88,0-1.397,0.888-1.397,2.409v5.352H309.316z M304.972,115.842v-12.985c0-2.789,1.172-4.666,2.948-4.666
			c1.775,0,2.965,1.877,2.965,4.666v12.985c0,0.229-0.087,0.355-0.242,0.355h-1.086c-0.138,0-0.241-0.126-0.241-0.355v-5.63h-2.793
			v5.63c0,0.229-0.086,0.355-0.223,0.355h-1.103C305.058,116.197,304.972,116.071,304.972,115.842"/>
	</g>
	<g>
		<defs>
			<rect id="SVGID_93_" y="-63" width="340" height="340"/>
		</defs>
		<clipPath id="SVGID_94_">
			<use xlink:href="#SVGID_93_"  overflow="visible"/>
		</clipPath>
		<path clip-path="url(#SVGID_94_)" fill="#681137" d="M316.828,98.773v1.446c0,0.229-0.086,0.356-0.241,0.356h-1.862v15.266
			c0,0.229-0.085,0.356-0.241,0.356h-1.086c-0.138,0-0.224-0.127-0.224-0.356v-15.266h-1.879c-0.137,0-0.223-0.127-0.223-0.356
			v-1.446c0-0.202,0.086-0.329,0.223-0.329h5.292C316.742,98.444,316.828,98.571,316.828,98.773"/>
	</g>
	<g>
		<defs>
			<rect id="SVGID_95_" y="-63" width="340" height="340"/>
		</defs>
		<clipPath id="SVGID_96_">
			<use xlink:href="#SVGID_95_"  overflow="visible"/>
		</clipPath>
		<path clip-path="url(#SVGID_96_)" fill="#681137" d="M318.259,98.444h1.086c0.137,0,0.224,0.127,0.224,0.329v17.068
			c0,0.229-0.087,0.356-0.224,0.356h-1.086c-0.155,0-0.241-0.127-0.241-0.356V98.773C318.018,98.571,318.104,98.444,318.259,98.444"
			/>
	</g>
	<g>
		<defs>
			<rect id="SVGID_97_" y="-63" width="340" height="340"/>
		</defs>
		<clipPath id="SVGID_98_">
			<use xlink:href="#SVGID_97_"  overflow="visible"/>
		</clipPath>
		<path clip-path="url(#SVGID_98_)" fill="#681137" d="M325.307,111.961v-9.283c0-1.394-0.586-2.357-1.465-2.357
			c-0.88,0-1.483,0.963-1.483,2.535v8.927c0,1.573,0.603,2.537,1.483,2.537C324.721,114.32,325.307,113.356,325.307,111.961
			 M320.791,111.682v-8.725c0-2.839,1.259-4.767,3.051-4.767s3.033,1.928,3.033,4.59v9.08c0,2.662-1.241,4.591-3.033,4.591
			S320.791,114.522,320.791,111.682"/>
	</g>
	<g>
		<defs>
			<rect id="SVGID_99_" y="-63" width="340" height="340"/>
		</defs>
		<clipPath id="SVGID_100_">
			<use xlink:href="#SVGID_99_"  overflow="visible"/>
		</clipPath>
		<path clip-path="url(#SVGID_100_)" fill="#681137" d="M327.987,115.842v-13.01c0-2.739,1.155-4.668,2.948-4.668
			c1.792,0,2.965,1.929,2.965,4.668v13.01c0,0.229-0.087,0.355-0.242,0.355h-1.086c-0.138,0-0.241-0.126-0.241-0.355v-13.111
			c0-1.447-0.534-2.41-1.396-2.41s-1.397,0.963-1.397,2.41v13.111c0,0.229-0.086,0.355-0.223,0.355h-1.103
			C328.073,116.197,327.987,116.071,327.987,115.842"/>
	</g>
	<g>
		<defs>
			<rect id="SVGID_101_" y="-63" width="340" height="340"/>
		</defs>
		<clipPath id="SVGID_102_">
			<use xlink:href="#SVGID_101_"  overflow="visible"/>
		</clipPath>
		<path clip-path="url(#SVGID_102_)" fill="#681137" d="M159.38,47.838c-0.334,0-0.501,0.167-0.501,0.502v14.068
			c0.02,1.584,0.475,2.851,1.364,3.801c0.89,0.95,2.097,1.437,3.621,1.461c1.538-0.024,2.753-0.511,3.646-1.461
			c0.892-0.95,1.349-2.217,1.368-3.801V48.34c-0.002-0.167-0.047-0.293-0.136-0.377c-0.089-0.083-0.211-0.125-0.365-0.125h-2.505
			c-0.155,0-0.277,0.042-0.366,0.125c-0.088,0.084-0.134,0.21-0.135,0.377v14.319c-0.004,0.536-0.137,0.961-0.398,1.275
			c-0.261,0.313-0.631,0.473-1.109,0.48c-0.477-0.007-0.847-0.167-1.108-0.48c-0.262-0.314-0.395-0.739-0.398-1.275V48.34
			c0-0.167-0.041-0.293-0.122-0.377c-0.08-0.083-0.197-0.125-0.351-0.125H159.38z"/>
	</g>
	<g>
		<defs>
			<rect id="SVGID_103_" y="-63" width="340" height="340"/>
		</defs>
		<clipPath id="SVGID_104_">
			<use xlink:href="#SVGID_103_"  overflow="visible"/>
		</clipPath>
		<path clip-path="url(#SVGID_104_)" fill="#681137" d="M182.26,47.504c-0.639,0.006-1.209,0.119-1.711,0.341
			c-0.502,0.221-0.953,0.515-1.354,0.884c-0.386-0.369-0.831-0.663-1.332-0.884c-0.502-0.222-1.08-0.335-1.732-0.341
			c-1.468,0.021-2.628,0.508-3.482,1.458c-0.854,0.95-1.29,2.237-1.309,3.859v14.014c0,0.334,0.168,0.501,0.501,0.501h2.449
			c0.335,0,0.501-0.167,0.501-0.501V52.57c0.002-0.573,0.117-1.013,0.346-1.319c0.228-0.306,0.56-0.46,0.994-0.463
			c0.423,0.003,0.755,0.157,0.997,0.463s0.365,0.746,0.37,1.319v14.265c0.004,0.334,0.162,0.501,0.473,0.501h2.449
			c0.334,0,0.501-0.167,0.501-0.501V52.57c0.004-0.573,0.122-1.013,0.356-1.319c0.233-0.306,0.561-0.46,0.983-0.463
			c0.447,0.003,0.787,0.157,1.018,0.463c0.232,0.306,0.348,0.746,0.349,1.319v14.265c0.005,0.334,0.162,0.501,0.473,0.501h2.477
			c0.155,0,0.277-0.042,0.366-0.126c0.088-0.083,0.133-0.208,0.135-0.375V52.821c-0.018-1.622-0.455-2.909-1.312-3.859
			S183.74,47.525,182.26,47.504"/>
	</g>
	<g>
		<defs>
			<rect id="SVGID_105_" y="-63" width="340" height="340"/>
		</defs>
		<clipPath id="SVGID_106_">
			<use xlink:href="#SVGID_105_"  overflow="visible"/>
		</clipPath>
		<path clip-path="url(#SVGID_106_)" fill="#681137" d="M190.045,47.838c-0.334,0-0.5,0.167-0.5,0.502v14.068
			c0.019,1.584,0.474,2.851,1.364,3.801c0.889,0.95,2.096,1.437,3.62,1.461c1.538-0.024,2.753-0.511,3.646-1.461
			s1.349-2.217,1.368-3.801V48.34c-0.002-0.167-0.047-0.293-0.136-0.377c-0.089-0.083-0.211-0.125-0.365-0.125h-2.505
			c-0.155,0-0.277,0.042-0.366,0.125c-0.088,0.084-0.133,0.21-0.135,0.377v14.319c-0.004,0.536-0.136,0.961-0.398,1.275
			c-0.261,0.313-0.631,0.473-1.109,0.48c-0.477-0.007-0.847-0.167-1.108-0.48c-0.261-0.314-0.394-0.739-0.397-1.275V48.34
			c-0.001-0.167-0.042-0.293-0.122-0.377c-0.081-0.083-0.198-0.125-0.352-0.125H190.045z"/>
	</g>
	<g>
		<defs>
			<rect id="SVGID_107_" y="-63" width="340" height="340"/>
		</defs>
		<clipPath id="SVGID_108_">
			<use xlink:href="#SVGID_107_"  overflow="visible"/>
		</clipPath>
		<path clip-path="url(#SVGID_108_)" fill="#681137" d="M210.305,47.838h-8.772c-0.311,0.005-0.47,0.163-0.474,0.474v2.254
			c0.004,0.31,0.163,0.468,0.474,0.472h2.674v15.797c0.005,0.334,0.162,0.501,0.473,0.501h2.505c0.311,0,0.469-0.167,0.473-0.501
			V51.038h2.647c0.334-0.004,0.501-0.162,0.501-0.472v-2.254C210.806,48.001,210.639,47.843,210.305,47.838"/>
	</g>
	<g>
		<defs>
			<rect id="SVGID_109_" y="-63" width="340" height="340"/>
		</defs>
		<clipPath id="SVGID_110_">
			<use xlink:href="#SVGID_109_"  overflow="visible"/>
		</clipPath>
		<path clip-path="url(#SVGID_110_)" fill="#681137" d="M221.634,67.447h2.925c0.155-0.001,0.277-0.041,0.366-0.122
			c0.088-0.08,0.134-0.197,0.136-0.351V64.72c-0.002-0.154-0.048-0.271-0.136-0.351c-0.089-0.081-0.211-0.121-0.366-0.122h-2.507
			c-0.605-0.009-1.075-0.201-1.411-0.578c-0.336-0.378-0.507-0.892-0.511-1.54v-3.068h3.733c0.334,0,0.501-0.167,0.501-0.501v-2.114
			c0-0.155-0.042-0.276-0.125-0.365c-0.084-0.089-0.209-0.134-0.376-0.136h-3.733v-2.899c0.004-0.65,0.175-1.163,0.511-1.54
			c0.336-0.378,0.806-0.571,1.411-0.58h2.507c0.155,0,0.277-0.041,0.366-0.125c0.088-0.083,0.134-0.208,0.136-0.375V48.2
			c-0.002-0.154-0.048-0.271-0.136-0.352c-0.089-0.081-0.211-0.121-0.366-0.122h-2.925c-1.525,0.025-2.736,0.505-3.634,1.445
			c-0.897,0.939-1.357,2.193-1.377,3.763v9.278c0.02,1.583,0.48,2.846,1.377,3.788C218.898,66.941,220.109,67.424,221.634,67.447"/>
	</g>
	<g>
		<defs>
			<rect id="SVGID_111_" y="-63" width="340" height="340"/>
		</defs>
		<clipPath id="SVGID_112_">
			<use xlink:href="#SVGID_111_"  overflow="visible"/>
		</clipPath>
		<path clip-path="url(#SVGID_112_)" fill="#681137" d="M239.01,52.445v14.39c0,0.334,0.167,0.501,0.501,0.501h2.477
			c0.155,0,0.277-0.042,0.365-0.125c0.089-0.084,0.135-0.209,0.136-0.376V51.826c-0.001-0.154-0.047-0.272-0.136-0.352
			c-0.088-0.081-0.21-0.122-0.365-0.122l-2.477,0.619c-0.167,0.001-0.293,0.041-0.376,0.122
			C239.052,52.174,239.01,52.292,239.01,52.445"/>
	</g>
	<g>
		<defs>
			<rect id="SVGID_113_" y="-63" width="340" height="340"/>
		</defs>
		<clipPath id="SVGID_114_">
			<use xlink:href="#SVGID_113_"  overflow="visible"/>
		</clipPath>
		<path clip-path="url(#SVGID_114_)" fill="#681137" d="M253.368,47.838h-8.772c-0.311,0.005-0.469,0.163-0.474,0.474v2.254
			c0.005,0.31,0.163,0.468,0.474,0.472h2.674v15.797c0.005,0.334,0.162,0.501,0.473,0.501h2.505c0.311,0,0.469-0.167,0.474-0.501
			V51.038h2.646c0.334-0.004,0.501-0.162,0.501-0.472v-2.254C253.869,48.001,253.702,47.843,253.368,47.838"/>
	</g>
	<g>
		<defs>
			<rect id="SVGID_115_" y="-63" width="340" height="340"/>
		</defs>
		<clipPath id="SVGID_116_">
			<use xlink:href="#SVGID_115_"  overflow="visible"/>
		</clipPath>
		<path clip-path="url(#SVGID_116_)" fill="#681137" d="M255.517,52.445v14.39c0,0.334,0.167,0.501,0.501,0.501h2.477
			c0.154,0,0.276-0.042,0.365-0.125c0.089-0.084,0.134-0.209,0.136-0.376V51.826c-0.002-0.154-0.047-0.272-0.136-0.352
			c-0.089-0.081-0.211-0.122-0.365-0.122l-2.477,0.619c-0.167,0.001-0.293,0.041-0.376,0.122
			C255.559,52.174,255.517,52.292,255.517,52.445"/>
	</g>
	<g>
		<defs>
			<rect id="SVGID_117_" y="-63" width="340" height="340"/>
		</defs>
		<clipPath id="SVGID_118_">
			<use xlink:href="#SVGID_117_"  overflow="visible"/>
		</clipPath>
		<path clip-path="url(#SVGID_118_)" fill="#681137" d="M272.496,47.504c-0.639,0.006-1.209,0.119-1.711,0.341
			c-0.502,0.221-0.953,0.515-1.353,0.884c-0.388-0.369-0.832-0.663-1.334-0.884c-0.501-0.222-1.079-0.335-1.731-0.341
			c-1.468,0.021-2.629,0.508-3.482,1.458c-0.854,0.95-1.29,2.237-1.309,3.859v14.014c0,0.334,0.167,0.501,0.502,0.501h2.448
			c0.335,0,0.501-0.167,0.501-0.501V52.57c0.002-0.573,0.117-1.013,0.345-1.319c0.229-0.306,0.561-0.46,0.995-0.463
			c0.422,0.003,0.755,0.157,0.997,0.463s0.365,0.746,0.369,1.319v14.265c0.005,0.334,0.163,0.501,0.473,0.501h2.45
			c0.334,0,0.501-0.167,0.501-0.501V52.57c0.003-0.573,0.122-1.013,0.356-1.319c0.233-0.306,0.561-0.46,0.983-0.463
			c0.447,0.003,0.787,0.157,1.018,0.463c0.232,0.306,0.347,0.746,0.349,1.319v14.265c0.005,0.334,0.162,0.501,0.473,0.501h2.477
			c0.155,0,0.277-0.042,0.366-0.126c0.088-0.083,0.133-0.208,0.135-0.375V52.821c-0.018-1.622-0.455-2.909-1.312-3.859
			C275.145,48.012,273.976,47.525,272.496,47.504"/>
	</g>
	<g>
		<defs>
			<rect id="SVGID_119_" y="-63" width="340" height="340"/>
		</defs>
		<clipPath id="SVGID_120_">
			<use xlink:href="#SVGID_119_"  overflow="visible"/>
		</clipPath>
		<path clip-path="url(#SVGID_120_)" fill="#681137" d="M294.001,47.838h-2.59c-0.14,0-0.256,0.035-0.344,0.108
			c-0.089,0.073-0.141,0.185-0.157,0.338l-2.089,14.819l-2.116-14.819c-0.016-0.153-0.068-0.265-0.157-0.338
			c-0.088-0.073-0.203-0.108-0.344-0.108h-2.618c-0.154,0-0.27,0.042-0.344,0.126c-0.075,0.083-0.099,0.209-0.073,0.376l3.035,17.77
			c0.07,0.435,0.236,0.77,0.498,1.006c0.261,0.237,0.615,0.357,1.061,0.359h2.089c0.446,0,0.8-0.116,1.062-0.348
			c0.261-0.23,0.427-0.57,0.497-1.017l3.036-17.77c0.026-0.167,0.001-0.293-0.077-0.376
			C294.293,47.88,294.169,47.838,294.001,47.838"/>
	</g>
	<g>
		<defs>
			<rect id="SVGID_121_" y="-63" width="340" height="340"/>
		</defs>
		<clipPath id="SVGID_122_">
			<use xlink:href="#SVGID_121_"  overflow="visible"/>
		</clipPath>
		<path clip-path="url(#SVGID_122_)" fill="#681137" d="M299.244,58.146v-5.602c0.003-0.549,0.136-0.978,0.397-1.286
			c0.262-0.309,0.632-0.465,1.109-0.47c0.478,0.005,0.848,0.161,1.109,0.47c0.261,0.308,0.394,0.737,0.398,1.286v5.602H299.244z
			 M296.266,67.336h2.505c0.154,0,0.271-0.042,0.351-0.126c0.081-0.083,0.122-0.208,0.122-0.375v-5.488h3.013v5.488
			c0.001,0.167,0.047,0.292,0.135,0.375c0.089,0.084,0.211,0.126,0.366,0.126h2.505c0.154,0,0.276-0.042,0.365-0.126
			c0.089-0.083,0.134-0.208,0.136-0.375v-14.04c-0.021-1.609-0.48-2.883-1.379-3.822c-0.897-0.941-2.109-1.42-3.635-1.441
			c-1.512,0.021-2.715,0.5-3.61,1.441c-0.895,0.939-1.353,2.213-1.375,3.822v14.04C295.765,67.169,295.932,67.336,296.266,67.336"/>
	</g>
	<g>
		<defs>
			<rect id="SVGID_123_" y="-63" width="340" height="340"/>
		</defs>
		<clipPath id="SVGID_124_">
			<use xlink:href="#SVGID_123_"  overflow="visible"/>
		</clipPath>
		<path clip-path="url(#SVGID_124_)" fill="#681137" d="M308.868,67.336h2.477c0.155,0,0.276-0.042,0.365-0.126
			c0.089-0.083,0.134-0.208,0.136-0.375v-7.606h1.171c0.573,0.002,1.004,0.166,1.294,0.495c0.29,0.328,0.435,0.813,0.436,1.455
			v5.656c0.005,0.334,0.162,0.501,0.473,0.501h2.533c0.155,0,0.277-0.042,0.365-0.126c0.089-0.083,0.134-0.208,0.136-0.375v-5.544
			c0-0.943-0.16-1.781-0.48-2.514c-0.321-0.733-0.801-1.306-1.441-1.718l2.06-8.692c0.041-0.156,0.022-0.282-0.056-0.379
			c-0.077-0.097-0.207-0.147-0.389-0.15h-2.477c-0.142-0.001-0.263,0.029-0.362,0.094c-0.1,0.064-0.165,0.173-0.195,0.324
			l-1.59,7.772h-1.478v-7.716c-0.002-0.154-0.047-0.272-0.136-0.352s-0.21-0.121-0.365-0.122h-2.477
			c-0.167,0.001-0.292,0.042-0.376,0.122c-0.083,0.08-0.125,0.198-0.125,0.352v18.523C308.367,67.169,308.534,67.336,308.868,67.336
			"/>
	</g>
	<g>
		<defs>
			<rect id="SVGID_125_" y="-63" width="340" height="340"/>
		</defs>
		<clipPath id="SVGID_126_">
			<use xlink:href="#SVGID_125_"  overflow="visible"/>
		</clipPath>
		<path clip-path="url(#SVGID_126_)" fill="#681137" d="M321.191,67.336h2.532c0.311,0,0.469-0.167,0.474-0.501v-7.662h3.454
			c0.311,0,0.47-0.166,0.474-0.501v-2.226c-0.004-0.311-0.163-0.468-0.474-0.473h-3.454v-2.816c0.005-0.649,0.176-1.163,0.512-1.54
			c0.336-0.378,0.806-0.57,1.41-0.579h2.062c0.311-0.004,0.469-0.162,0.473-0.473v-2.253c-0.004-0.311-0.162-0.469-0.473-0.474
			h-2.48c-1.525,0.023-2.736,0.506-3.633,1.447c-0.898,0.943-1.357,2.205-1.378,3.788v13.762
			C320.69,67.169,320.857,67.336,321.191,67.336"/>
	</g>
	<g>
		<defs>
			<rect id="SVGID_127_" y="-63" width="340" height="340"/>
		</defs>
		<clipPath id="SVGID_128_">
			<use xlink:href="#SVGID_127_"  overflow="visible"/>
		</clipPath>
		<path clip-path="url(#SVGID_128_)" fill="#681137" d="M330.42,48.311v18.523c0,0.334,0.167,0.501,0.501,0.501h2.477
			c0.155,0,0.277-0.042,0.366-0.125c0.088-0.084,0.134-0.209,0.135-0.376V48.311c-0.001-0.153-0.047-0.271-0.135-0.352
			c-0.089-0.08-0.211-0.121-0.366-0.122h-2.477c-0.167,0.001-0.292,0.042-0.376,0.122C330.462,48.04,330.42,48.158,330.42,48.311"/>
	</g>
	<g>
		<defs>
			<rect id="SVGID_129_" y="-63" width="340" height="340"/>
		</defs>
		<clipPath id="SVGID_130_">
			<use xlink:href="#SVGID_129_"  overflow="visible"/>
		</clipPath>
		<path clip-path="url(#SVGID_130_)" fill="#681137" d="M239.01,48.311v1.608c0,0.335,0.167,0.502,0.501,0.502l2.477,0.62
			c0.155,0,0.277-0.042,0.365-0.126c0.089-0.083,0.135-0.208,0.136-0.375v-2.229c-0.001-0.153-0.047-0.271-0.136-0.352
			c-0.088-0.08-0.21-0.121-0.365-0.122h-2.477c-0.167,0.001-0.293,0.042-0.376,0.122C239.052,48.04,239.01,48.158,239.01,48.311"/>
	</g>
	<g>
		<defs>
			<rect id="SVGID_131_" y="-63" width="340" height="340"/>
		</defs>
		<clipPath id="SVGID_132_">
			<use xlink:href="#SVGID_131_"  overflow="visible"/>
		</clipPath>
		<path clip-path="url(#SVGID_132_)" fill="#681137" d="M255.517,48.311v1.608c0,0.335,0.167,0.502,0.501,0.502l2.477,0.62
			c0.154,0,0.276-0.042,0.365-0.126c0.089-0.083,0.134-0.208,0.136-0.375v-2.229c-0.002-0.153-0.047-0.271-0.136-0.352
			c-0.089-0.08-0.211-0.121-0.365-0.122h-2.477c-0.167,0.001-0.293,0.042-0.376,0.122C255.559,48.04,255.517,48.158,255.517,48.311"
			/>
	</g>
	<g>
		<defs>
			<rect id="SVGID_133_" y="-63" width="340" height="340"/>
		</defs>
		<clipPath id="SVGID_134_">
			<use xlink:href="#SVGID_133_"  overflow="visible"/>
		</clipPath>
		<path clip-path="url(#SVGID_134_)" fill="#681137" d="M231.777,67.67c-1.526-0.022-2.743-0.506-3.649-1.451
			s-1.37-2.215-1.392-3.812v-9.668c0.02-1.584,0.474-2.845,1.361-3.788c0.269-0.286,0.567-0.529,0.894-0.73
			c0.118,0.151,0.252,0.291,0.4,0.42c0.592,0.512,1.359,0.774,2.303,0.786c0.943-0.012,1.711-0.274,2.302-0.786
			c0.136-0.118,0.26-0.245,0.37-0.382c0.308,0.199,0.593,0.438,0.855,0.717c0.905,0.962,1.391,2.282,1.458,3.959
			c-0.005,0.334-0.163,0.502-0.473,0.502h-2.505c-0.154-0.001-0.278-0.042-0.369-0.123c-0.092-0.081-0.145-0.198-0.16-0.352
			c-0.034-0.763-0.183-1.321-0.446-1.676c-0.264-0.355-0.608-0.53-1.032-0.526c-0.463,0.006-0.82,0.161-1.071,0.467
			c-0.25,0.305-0.377,0.726-0.38,1.261v10.17c0.007,0.549,0.154,0.977,0.443,1.286c0.289,0.308,0.68,0.465,1.174,0.47
			c0.481-0.007,0.86-0.16,1.137-0.46c0.278-0.3,0.42-0.704,0.426-1.213v-3.149h-1.116c-0.335,0-0.502-0.168-0.502-0.502v-2.003
			c0-0.334,0.167-0.501,0.502-0.501h3.119c0.475,0.002,0.834,0.13,1.079,0.383s0.368,0.616,0.369,1.092v4.429
			c-0.023,1.557-0.493,2.803-1.409,3.74C234.548,67.166,233.318,67.646,231.777,67.67"/>
	</g>
	<g>
		<defs>
			<rect id="SVGID_135_" y="-63" width="340" height="340"/>
		</defs>
		<clipPath id="SVGID_136_">
			<use xlink:href="#SVGID_135_"  overflow="visible"/>
		</clipPath>
		<path clip-path="url(#SVGID_136_)" fill="#681137" d="M231.689,48.768c-0.712-0.009-1.292-0.207-1.738-0.594
			c-0.112-0.096-0.213-0.202-0.302-0.316c0.565-0.349,1.246-0.529,2.04-0.541c0.776,0.01,1.449,0.2,2.018,0.569
			c-0.084,0.104-0.177,0.199-0.279,0.288C232.981,48.561,232.402,48.759,231.689,48.768"/>
	</g>
	<g>
		<defs>
			<rect id="SVGID_137_" y="-63" width="340" height="340"/>
		</defs>
		<clipPath id="SVGID_138_">
			<use xlink:href="#SVGID_137_"  overflow="visible"/>
		</clipPath>
		<path clip-path="url(#SVGID_138_)" fill="#681137" d="M165.386,80.803c-0.465,0.327-0.686,0.881-0.686,1.659v1.311
			c0,0.799,0.177,1.352,0.553,1.68c0.377,0.328,0.952,0.492,1.771,0.492c1.549,0,2.324-0.718,2.324-2.172v-1.311
			c0-1.372-0.752-2.049-2.28-2.049C166.316,80.413,165.763,80.536,165.386,80.803 M170.919,79.081
			c0.908,0.677,1.351,1.783,1.351,3.34v1.393c0,0.164,0,0.329-0.023,0.512c0.155,0.574,0.532,0.922,1.129,1.066
			c0.2,0.041,0.797,0.061,1.793,0.061v2.663c-2.014,0-3.319-0.389-3.917-1.168l-0.244,0.205c-0.332,0.287-0.775,0.492-1.306,0.657
			c-0.31,0.082-0.664,0.184-1.04,0.246c-0.487,0.06-1.018,0.081-1.594,0.081c-1.261,0-2.279-0.143-3.076-0.43
			c-1.483,0.349-2.236,1.106-2.236,2.233v3.237h-2.878V89.94c0-1.905,1.064-3.278,3.21-4.118c-0.199-0.554-0.287-1.229-0.287-2.008
			v-1.393c0-1.536,0.442-2.643,1.327-3.319c0.82-0.615,2.103-0.921,3.896-0.921S170.101,78.487,170.919,79.081"/>
	</g>
	<g>
		<defs>
			<rect id="SVGID_139_" y="-63" width="340" height="340"/>
		</defs>
		<clipPath id="SVGID_140_">
			<use xlink:href="#SVGID_139_"  overflow="visible"/>
		</clipPath>
		<path clip-path="url(#SVGID_140_)" fill="#681137" d="M181.142,90.37h2.545v2.192h-2.545V90.37z M177.557,90.37h2.545v2.192
			h-2.545V90.37z M181.983,83.917c0,0.737,0.266,1.187,0.775,1.372c0.266,0.103,0.952,0.164,2.058,0.164h0.222v2.663h-0.222
			c-1.837,0-3.23-0.429-4.228-1.31c-0.995,0.881-2.389,1.31-4.226,1.31h-2.059v-2.663h2.059c1.084,0,1.77-0.061,2.058-0.164
			c0.509-0.185,0.774-0.635,0.774-1.372v-5.695h2.789V83.917z"/>
	</g>
	<g>
		<defs>
			<rect id="SVGID_141_" y="-63" width="340" height="340"/>
		</defs>
		<clipPath id="SVGID_142_">
			<use xlink:href="#SVGID_141_"  overflow="visible"/>
		</clipPath>
		<path clip-path="url(#SVGID_142_)" fill="#681137" d="M189.329,83.936c0,0.554,0.2,0.964,0.575,1.188
			c0.244,0.144,0.664,0.247,1.306,0.329h0.443v2.663h-0.465c-1.483,0-2.567-0.204-3.297-0.635c-0.731,0.431-1.837,0.635-3.276,0.635
			h-0.465v-2.663h0.443c0.641-0.082,1.084-0.205,1.327-0.349c0.377-0.225,0.554-0.614,0.554-1.168V72.935h2.855L189.329,83.936
			L189.329,83.936z"/>
	</g>
	<g>
		<defs>
			<rect id="SVGID_143_" y="-63" width="340" height="340"/>
		</defs>
		<clipPath id="SVGID_144_">
			<use xlink:href="#SVGID_143_"  overflow="visible"/>
		</clipPath>
		<path clip-path="url(#SVGID_144_)" fill="#681137" d="M197.76,83.589c0.398,0.491,0.576,1.045,1.727,1.476
			c1.128-0.431,2.39-0.922,2.39-1.476v-1.024c0-1.619-2.877-2.848-5.954-1.189L197.76,83.589z M204.754,82.175v2.172
			c0,0.39-0.818,0.738-1.062,1.106h3.474v2.663h-16.4v-2.663h4.471c-0.244-0.368-0.088-0.799-0.376-1.106l-1.837-1.885v-3.4
			c5.976-2.827,8.941-0.944,10.07,0.183C203.736,79.902,204.754,80.885,204.754,82.175"/>
	</g>
	<g>
		<defs>
			<rect id="SVGID_145_" y="-63" width="340" height="340"/>
		</defs>
		<clipPath id="SVGID_146_">
			<use xlink:href="#SVGID_145_"  overflow="visible"/>
		</clipPath>
		<path clip-path="url(#SVGID_146_)" fill="#681137" d="M213.251,73.837h2.545v2.192h-2.545V73.837z M209.666,73.837h2.544v2.192
			h-2.544V73.837z M214.07,83.917c0,0.737,0.265,1.187,0.774,1.372c0.266,0.103,0.952,0.164,2.059,0.164h0.221v2.663h-0.221
			c-1.837,0-3.232-0.429-4.228-1.31c-0.996,0.881-2.391,1.31-4.228,1.31h-2.168v-2.663h2.168c1.086,0,1.771-0.061,2.059-0.164
			c0.51-0.185,0.774-0.635,0.774-1.372v-5.695h2.79L214.07,83.917L214.07,83.917z"/>
	</g>
	<g>
		<defs>
			<rect id="SVGID_147_" y="-63" width="340" height="340"/>
		</defs>
		<clipPath id="SVGID_148_">
			<use xlink:href="#SVGID_147_"  overflow="visible"/>
		</clipPath>
		<path clip-path="url(#SVGID_148_)" fill="#681137" d="M221.415,83.936c0,0.554,0.199,0.964,0.575,1.188
			c0.243,0.144,0.664,0.247,1.306,0.329h0.443v2.663h-0.465c-1.483,0-2.567-0.204-3.297-0.635c-0.731,0.431-1.837,0.635-3.277,0.635
			h-0.464v-2.663h0.442c0.642-0.082,1.085-0.205,1.329-0.349c0.375-0.225,0.553-0.614,0.553-1.168V72.935h2.855L221.415,83.936
			L221.415,83.936z"/>
	</g>
	<g>
		<defs>
			<rect id="SVGID_149_" y="-63" width="340" height="340"/>
		</defs>
		<clipPath id="SVGID_150_">
			<use xlink:href="#SVGID_149_"  overflow="visible"/>
		</clipPath>
		<path clip-path="url(#SVGID_150_)" fill="#681137" d="M228.031,84.531c0,1.229-0.354,2.131-1.084,2.725
			c-0.731,0.574-1.927,0.86-3.631,0.86h-0.464v-2.663h0.443c0.641-0.082,1.084-0.205,1.327-0.349
			c0.376-0.224,0.554-0.635,0.554-1.187V72.935h2.855L228.031,84.531L228.031,84.531z"/>
	</g>
	<g>
		<defs>
			<rect id="SVGID_151_" y="-63" width="340" height="340"/>
		</defs>
		<clipPath id="SVGID_152_">
			<use xlink:href="#SVGID_151_"  overflow="visible"/>
		</clipPath>
		<path clip-path="url(#SVGID_152_)" fill="#681137" d="M247.728,83.978c0.045,0.45,0.178,0.778,0.376,1.004
			c0.244,0.266,0.753,0.471,1.483,0.471h0.466v2.663h-0.864c-0.553,0-1.04-0.061-1.461-0.122v0.409c0,1.188-0.487,2.172-1.372,2.991
			c-0.797,0.717-1.837,1.25-3.187,1.516c-1.284,0.266-2.568,0.307-3.874,0.102c-1.328-0.204-2.39-0.614-3.209-1.249
			c-0.864-0.636-1.284-1.762-1.284-3.36v-3.012h2.878v3.012c0,0.778,0.221,1.29,0.598,1.598c0.929,0.717,2.19,0.984,3.872,0.717
			c1.816-0.266,2.724-1.025,2.724-2.315V72.935h2.854L247.728,83.978L247.728,83.978z"/>
	</g>
	<g>
		<defs>
			<rect id="SVGID_153_" y="-63" width="340" height="340"/>
		</defs>
		<clipPath id="SVGID_154_">
			<use xlink:href="#SVGID_153_"  overflow="visible"/>
		</clipPath>
		<path clip-path="url(#SVGID_154_)" fill="#681137" d="M255.826,80.803c-0.466,0.327-0.687,0.881-0.687,1.659v1.311
			c0,0.799,0.178,1.352,0.554,1.68c0.375,0.328,0.951,0.492,1.77,0.492c1.55,0,2.325-0.718,2.325-2.172v-1.311
			c0-1.372-0.753-2.049-2.28-2.049C256.755,80.413,256.202,80.536,255.826,80.803 M261.359,79.081c0.908,0.677,1.35,1.783,1.35,3.34
			v1.393c0,1.578-0.42,2.684-1.262,3.339c-0.818,0.636-2.147,0.984-3.939,0.984c-0.31,0-0.62,0-0.93-0.021
			c-1.306-0.06-2.235-0.327-2.855-0.758l-0.266-0.184l-0.331-0.307c-0.554,0.84-1.771,1.249-3.631,1.249h-0.331v-2.663
			c1.039,0,1.637-0.041,1.837-0.082c0.619-0.164,0.996-0.512,1.129-1.146l0.11-0.513v-1.291c0-1.536,0.442-2.643,1.328-3.319
			c0.819-0.615,2.103-0.921,3.895-0.921C259.256,78.181,260.54,78.487,261.359,79.081"/>
	</g>
	<g>
		<defs>
			<rect id="SVGID_155_" y="-63" width="340" height="340"/>
		</defs>
		<clipPath id="SVGID_156_">
			<use xlink:href="#SVGID_155_"  overflow="visible"/>
		</clipPath>
		<path clip-path="url(#SVGID_156_)" fill="#681137" d="M266.579,73.694c-0.488,0-0.752,0.041-0.797,0.102
			c-0.155,0.164-0.067,0.368,0.309,0.615c0.09,0.081,0.222,0.164,0.421,0.266l0.354,0.205l-0.066,0.43
			c-0.863-0.02-1.461,0.021-1.748,0.164l-0.178-0.573c0.178-0.144,0.377-0.206,0.598-0.206c-0.465-0.183-0.642-0.471-0.553-0.901
			c0.11-0.431,0.42-0.635,0.974-0.635h0.686L266.579,73.694L266.579,73.694z M272.045,84.592c0,1.168-0.331,2.049-1.018,2.603
			c-0.62,0.491-1.504,0.798-2.633,0.9c-1.129,0.102-2.169-0.04-3.077-0.389v-2.724c0.199,0.204,0.487,0.369,0.819,0.47l-1.659-9.506
			h2.743l1.594,9.178c0.355-0.286,0.531-0.655,0.531-1.106V72.936h2.7L272.045,84.592L272.045,84.592z"/>
	</g>
	<g>
		<defs>
			<rect id="SVGID_157_" y="-63" width="340" height="340"/>
		</defs>
		<clipPath id="SVGID_158_">
			<use xlink:href="#SVGID_157_"  overflow="visible"/>
		</clipPath>
		<rect x="273.813" y="72.935" clip-path="url(#SVGID_158_)" fill="#681137" width="2.856" height="15.181"/>
	</g>
	<g>
		<defs>
			<rect id="SVGID_159_" y="-63" width="340" height="340"/>
		</defs>
		<clipPath id="SVGID_160_">
			<use xlink:href="#SVGID_159_"  overflow="visible"/>
		</clipPath>
		<path clip-path="url(#SVGID_160_)" fill="#681137" d="M301.967,73.836h2.545v2.192h-2.545V73.836z M301.148,82.564v1.311
			c0,1.352,0.753,2.028,2.28,2.028c0.753,0,1.306-0.122,1.682-0.368c0.443-0.349,0.664-0.902,0.664-1.66v-1.311
			c0-0.799-0.177-1.353-0.553-1.68c-0.377-0.307-0.952-0.471-1.749-0.471C301.923,80.413,301.148,81.129,301.148,82.564
			 M307.434,79.184c0.818,0.635,1.217,1.741,1.217,3.339v1.393c0,0.574-0.066,1.086-0.176,1.537h1.792v2.663h-22.819
			c-1.528,0-2.59-0.328-3.144-0.963c-0.553-0.635-0.841-1.885-0.841-3.729c0-2.171,0.377-3.605,1.152-4.282
			c0.575-0.512,1.659-0.758,3.275-0.758v2.562c-0.708,0-1.262,0.183-1.66,0.573c-0.376,0.349-0.576,0.942-0.576,1.741
			c0,0.697,0.178,1.23,0.554,1.599c0.332,0.388,0.863,0.594,1.571,0.594h10.669c-0.111-0.451-0.177-0.963-0.177-1.537v-1.393
			c0-1.577,0.398-2.684,1.217-3.319c0.842-0.656,2.147-0.983,3.94-0.983C305.288,78.221,306.615,78.548,307.434,79.184"/>
	</g>
	<g>
		<defs>
			<rect id="SVGID_161_" y="-63" width="340" height="340"/>
		</defs>
		<clipPath id="SVGID_162_">
			<use xlink:href="#SVGID_161_"  overflow="visible"/>
		</clipPath>
		<path clip-path="url(#SVGID_162_)" fill="#681137" d="M316.636,73.836h2.545v2.192h-2.545V73.836z M313.759,82.564v1.311
			c0,1.352,0.752,2.028,2.279,2.028c0.753,0,1.306-0.122,1.682-0.368c0.443-0.349,0.664-0.902,0.664-1.66v-1.311
			c0-0.799-0.177-1.353-0.553-1.68c-0.354-0.307-0.93-0.471-1.749-0.471C314.533,80.413,313.759,81.129,313.759,82.564
			 M313.05,73.836h2.545v2.192h-2.545V73.836z M320.044,79.184c0.819,0.635,1.218,1.741,1.218,3.339v1.393
			c0,1.537-0.444,2.643-1.306,3.298c-0.819,0.595-2.103,0.902-3.874,0.902h-6.706v-2.663h1.682c-0.11-0.451-0.177-0.963-0.177-1.537
			v-1.393c0-1.577,0.421-2.684,1.24-3.319c0.819-0.656,2.125-0.983,3.917-0.983C317.919,78.221,319.248,78.548,320.044,79.184"/>
	</g>
	<g>
		<defs>
			<rect id="SVGID_163_" y="-63" width="340" height="340"/>
		</defs>
		<clipPath id="SVGID_164_">
			<use xlink:href="#SVGID_163_"  overflow="visible"/>
		</clipPath>
		<path clip-path="url(#SVGID_164_)" fill="#681137" d="M328.587,80.598c-3.432,0-3.453,4.855-1.084,4.855h3.541v-4.855H328.587z
			 M333.899,89.386c0,1.414-0.333,2.397-1.018,2.909c-0.687,0.513-3.63,1.189-5.622,1.189l-1.306-2.439
			c0.73,0,4.05-0.164,4.471-0.491c0.421-0.328,0.62-0.82,0.62-1.476v-0.942h-3.254c-1.394,0-2.391-0.225-2.966-0.676
			c-2.723-2.069-2.058-9.178,3.63-9.178h5.445V89.386z"/>
	</g>
</g>
</svg>
